<?xml version="1.0" encoding="utf-8"?>
<svg xmlns="http://www.w3.org/2000/svg" xmlns:xlink="http://www.w3.org/1999/xlink" width="600" height="400" viewBox="0 0 2400 1600">
<defs>
  <clipPath id="clip820">
    <rect x="0" y="0" width="2400" height="1600"/>
  </clipPath>
</defs>
<path clip-path="url(#clip820)" d="M0 1600 L2400 1600 L2400 0 L0 0  Z" fill="#ffffff" fill-rule="evenodd" fill-opacity="1"/>
<defs>
  <clipPath id="clip821">
    <rect x="480" y="0" width="1681" height="1600"/>
  </clipPath>
</defs>
<path clip-path="url(#clip820)" d="M247.459 1153.06 L2352.76 1153.06 L2352.76 123.472 L247.459 123.472  Z" fill="#ffffff" fill-rule="evenodd" fill-opacity="1"/>
<defs>
  <clipPath id="clip822">
    <rect x="247" y="123" width="2106" height="1031"/>
  </clipPath>
</defs>
<polyline clip-path="url(#clip822)" style="stroke:#000000; stroke-linecap:round; stroke-linejoin:round; stroke-width:2; stroke-opacity:0.1; fill:none" points="505.656,1153.06 505.656,123.472 "/>
<polyline clip-path="url(#clip822)" style="stroke:#000000; stroke-linecap:round; stroke-linejoin:round; stroke-width:2; stroke-opacity:0.1; fill:none" points="902.881,1153.06 902.881,123.472 "/>
<polyline clip-path="url(#clip822)" style="stroke:#000000; stroke-linecap:round; stroke-linejoin:round; stroke-width:2; stroke-opacity:0.1; fill:none" points="1300.11,1153.06 1300.11,123.472 "/>
<polyline clip-path="url(#clip822)" style="stroke:#000000; stroke-linecap:round; stroke-linejoin:round; stroke-width:2; stroke-opacity:0.1; fill:none" points="1697.33,1153.06 1697.33,123.472 "/>
<polyline clip-path="url(#clip822)" style="stroke:#000000; stroke-linecap:round; stroke-linejoin:round; stroke-width:2; stroke-opacity:0.1; fill:none" points="2094.56,1153.06 2094.56,123.472 "/>
<polyline clip-path="url(#clip820)" style="stroke:#000000; stroke-linecap:round; stroke-linejoin:round; stroke-width:4; stroke-opacity:1; fill:none" points="247.459,1153.06 2352.76,1153.06 "/>
<polyline clip-path="url(#clip820)" style="stroke:#000000; stroke-linecap:round; stroke-linejoin:round; stroke-width:4; stroke-opacity:1; fill:none" points="505.656,1153.06 505.656,1138.09 "/>
<polyline clip-path="url(#clip820)" style="stroke:#000000; stroke-linecap:round; stroke-linejoin:round; stroke-width:4; stroke-opacity:1; fill:none" points="902.881,1153.06 902.881,1138.09 "/>
<polyline clip-path="url(#clip820)" style="stroke:#000000; stroke-linecap:round; stroke-linejoin:round; stroke-width:4; stroke-opacity:1; fill:none" points="1300.11,1153.06 1300.11,1138.09 "/>
<polyline clip-path="url(#clip820)" style="stroke:#000000; stroke-linecap:round; stroke-linejoin:round; stroke-width:4; stroke-opacity:1; fill:none" points="1697.33,1153.06 1697.33,1138.09 "/>
<polyline clip-path="url(#clip820)" style="stroke:#000000; stroke-linecap:round; stroke-linejoin:round; stroke-width:4; stroke-opacity:1; fill:none" points="2094.56,1153.06 2094.56,1138.09 "/>
<path clip-path="url(#clip820)" d="M474.556 1198.63 L504.232 1198.63 L504.232 1202.56 L474.556 1202.56 L474.556 1198.63 Z" fill="#000000" fill-rule="evenodd" fill-opacity="1" /><path clip-path="url(#clip820)" d="M527.172 1184.97 L515.366 1203.42 L527.172 1203.42 L527.172 1184.97 M525.945 1180.9 L531.824 1180.9 L531.824 1203.42 L536.755 1203.42 L536.755 1207.31 L531.824 1207.31 L531.824 1215.46 L527.172 1215.46 L527.172 1207.31 L511.57 1207.31 L511.57 1202.79 L525.945 1180.9 Z" fill="#000000" fill-rule="evenodd" fill-opacity="1" /><path clip-path="url(#clip820)" d="M872.824 1198.63 L902.499 1198.63 L902.499 1202.56 L872.824 1202.56 L872.824 1198.63 Z" fill="#000000" fill-rule="evenodd" fill-opacity="1" /><path clip-path="url(#clip820)" d="M916.62 1211.52 L932.939 1211.52 L932.939 1215.46 L910.995 1215.46 L910.995 1211.52 Q913.657 1208.77 918.24 1204.14 Q922.847 1199.48 924.027 1198.14 Q926.273 1195.62 927.152 1193.88 Q928.055 1192.12 928.055 1190.43 Q928.055 1187.68 926.11 1185.94 Q924.189 1184.21 921.087 1184.21 Q918.888 1184.21 916.435 1184.97 Q914.004 1185.73 911.226 1187.29 L911.226 1182.56 Q914.05 1181.43 916.504 1180.85 Q918.958 1180.27 920.995 1180.27 Q926.365 1180.27 929.56 1182.96 Q932.754 1185.64 932.754 1190.13 Q932.754 1192.26 931.944 1194.18 Q931.157 1196.08 929.05 1198.67 Q928.472 1199.35 925.37 1202.56 Q922.268 1205.76 916.62 1211.52 Z" fill="#000000" fill-rule="evenodd" fill-opacity="1" /><path clip-path="url(#clip820)" d="M1300.11 1183.97 Q1296.5 1183.97 1294.67 1187.54 Q1292.86 1191.08 1292.86 1198.21 Q1292.86 1205.32 1294.67 1208.88 Q1296.5 1212.42 1300.11 1212.42 Q1303.74 1212.42 1305.55 1208.88 Q1307.38 1205.32 1307.38 1198.21 Q1307.38 1191.08 1305.55 1187.54 Q1303.74 1183.97 1300.11 1183.97 M1300.11 1180.27 Q1305.92 1180.27 1308.97 1184.88 Q1312.05 1189.46 1312.05 1198.21 Q1312.05 1206.94 1308.97 1211.54 Q1305.92 1216.13 1300.11 1216.13 Q1294.3 1216.13 1291.22 1211.54 Q1288.16 1206.94 1288.16 1198.21 Q1288.16 1189.46 1291.22 1184.88 Q1294.3 1180.27 1300.11 1180.27 Z" fill="#000000" fill-rule="evenodd" fill-opacity="1" /><path clip-path="url(#clip820)" d="M1691.99 1211.52 L1708.31 1211.52 L1708.31 1215.46 L1686.36 1215.46 L1686.36 1211.52 Q1689.02 1208.77 1693.61 1204.14 Q1698.21 1199.48 1699.39 1198.14 Q1701.64 1195.62 1702.52 1193.88 Q1703.42 1192.12 1703.42 1190.43 Q1703.42 1187.68 1701.48 1185.94 Q1699.56 1184.21 1696.45 1184.21 Q1694.25 1184.21 1691.8 1184.97 Q1689.37 1185.73 1686.59 1187.29 L1686.59 1182.56 Q1689.42 1181.43 1691.87 1180.85 Q1694.32 1180.27 1696.36 1180.27 Q1701.73 1180.27 1704.93 1182.96 Q1708.12 1185.64 1708.12 1190.13 Q1708.12 1192.26 1707.31 1194.18 Q1706.52 1196.08 1704.42 1198.67 Q1703.84 1199.35 1700.74 1202.56 Q1697.63 1205.76 1691.99 1211.52 Z" fill="#000000" fill-rule="evenodd" fill-opacity="1" /><path clip-path="url(#clip820)" d="M2097.57 1184.97 L2085.76 1203.42 L2097.57 1203.42 L2097.57 1184.97 M2096.34 1180.9 L2102.22 1180.9 L2102.22 1203.42 L2107.15 1203.42 L2107.15 1207.31 L2102.22 1207.31 L2102.22 1215.46 L2097.57 1215.46 L2097.57 1207.31 L2081.97 1207.31 L2081.97 1202.79 L2096.34 1180.9 Z" fill="#000000" fill-rule="evenodd" fill-opacity="1" /><path clip-path="url(#clip820)" d="M1316.72 1262.27 L1303.83 1279.62 L1317.39 1297.92 L1310.48 1297.92 L1300.11 1283.92 L1289.73 1297.92 L1282.82 1297.92 L1296.67 1279.27 L1284 1262.27 L1290.91 1262.27 L1300.36 1274.97 L1309.82 1262.27 L1316.72 1262.27 Z" fill="#000000" fill-rule="evenodd" fill-opacity="1" /><polyline clip-path="url(#clip822)" style="stroke:#000000; stroke-linecap:round; stroke-linejoin:round; stroke-width:2; stroke-opacity:0.1; fill:none" points="247.459,1106.72 2352.76,1106.72 "/>
<polyline clip-path="url(#clip822)" style="stroke:#000000; stroke-linecap:round; stroke-linejoin:round; stroke-width:2; stroke-opacity:0.1; fill:none" points="247.459,921.01 2352.76,921.01 "/>
<polyline clip-path="url(#clip822)" style="stroke:#000000; stroke-linecap:round; stroke-linejoin:round; stroke-width:2; stroke-opacity:0.1; fill:none" points="247.459,735.305 2352.76,735.305 "/>
<polyline clip-path="url(#clip822)" style="stroke:#000000; stroke-linecap:round; stroke-linejoin:round; stroke-width:2; stroke-opacity:0.1; fill:none" points="247.459,549.601 2352.76,549.601 "/>
<polyline clip-path="url(#clip822)" style="stroke:#000000; stroke-linecap:round; stroke-linejoin:round; stroke-width:2; stroke-opacity:0.1; fill:none" points="247.459,363.896 2352.76,363.896 "/>
<polyline clip-path="url(#clip822)" style="stroke:#000000; stroke-linecap:round; stroke-linejoin:round; stroke-width:2; stroke-opacity:0.1; fill:none" points="247.459,178.191 2352.76,178.191 "/>
<polyline clip-path="url(#clip820)" style="stroke:#000000; stroke-linecap:round; stroke-linejoin:round; stroke-width:4; stroke-opacity:1; fill:none" points="247.459,1153.06 247.459,123.472 "/>
<polyline clip-path="url(#clip820)" style="stroke:#000000; stroke-linecap:round; stroke-linejoin:round; stroke-width:4; stroke-opacity:1; fill:none" points="247.459,1106.72 266.356,1106.72 "/>
<polyline clip-path="url(#clip820)" style="stroke:#000000; stroke-linecap:round; stroke-linejoin:round; stroke-width:4; stroke-opacity:1; fill:none" points="247.459,921.01 266.356,921.01 "/>
<polyline clip-path="url(#clip820)" style="stroke:#000000; stroke-linecap:round; stroke-linejoin:round; stroke-width:4; stroke-opacity:1; fill:none" points="247.459,735.305 266.356,735.305 "/>
<polyline clip-path="url(#clip820)" style="stroke:#000000; stroke-linecap:round; stroke-linejoin:round; stroke-width:4; stroke-opacity:1; fill:none" points="247.459,549.601 266.356,549.601 "/>
<polyline clip-path="url(#clip820)" style="stroke:#000000; stroke-linecap:round; stroke-linejoin:round; stroke-width:4; stroke-opacity:1; fill:none" points="247.459,363.896 266.356,363.896 "/>
<polyline clip-path="url(#clip820)" style="stroke:#000000; stroke-linecap:round; stroke-linejoin:round; stroke-width:4; stroke-opacity:1; fill:none" points="247.459,178.191 266.356,178.191 "/>
<path clip-path="url(#clip820)" d="M115.927 1120.06 L123.566 1120.06 L123.566 1093.69 L115.256 1095.36 L115.256 1091.1 L123.519 1089.44 L128.195 1089.44 L128.195 1120.06 L135.834 1120.06 L135.834 1124 L115.927 1124 L115.927 1120.06 Z" fill="#000000" fill-rule="evenodd" fill-opacity="1" /><path clip-path="url(#clip820)" d="M155.278 1092.51 Q151.667 1092.51 149.839 1096.08 Q148.033 1099.62 148.033 1106.75 Q148.033 1113.86 149.839 1117.42 Q151.667 1120.96 155.278 1120.96 Q158.913 1120.96 160.718 1117.42 Q162.547 1113.86 162.547 1106.75 Q162.547 1099.62 160.718 1096.08 Q158.913 1092.51 155.278 1092.51 M155.278 1088.81 Q161.089 1088.81 164.144 1093.42 Q167.223 1098 167.223 1106.75 Q167.223 1115.48 164.144 1120.08 Q161.089 1124.67 155.278 1124.67 Q149.468 1124.67 146.39 1120.08 Q143.334 1115.48 143.334 1106.75 Q143.334 1098 146.39 1093.42 Q149.468 1088.81 155.278 1088.81 Z" fill="#000000" fill-rule="evenodd" fill-opacity="1" /><path clip-path="url(#clip820)" d="M175.44 1118.12 L180.325 1118.12 L180.325 1124 L175.44 1124 L175.44 1118.12 Z" fill="#000000" fill-rule="evenodd" fill-opacity="1" /><path clip-path="url(#clip820)" d="M190.556 1089.44 L208.912 1089.44 L208.912 1093.37 L194.838 1093.37 L194.838 1101.84 Q195.857 1101.5 196.875 1101.33 Q197.894 1101.15 198.912 1101.15 Q204.699 1101.15 208.079 1104.32 Q211.459 1107.49 211.459 1112.91 Q211.459 1118.49 207.987 1121.59 Q204.514 1124.67 198.195 1124.67 Q196.019 1124.67 193.75 1124.3 Q191.505 1123.93 189.098 1123.18 L189.098 1118.49 Q191.181 1119.62 193.403 1120.18 Q195.625 1120.73 198.102 1120.73 Q202.107 1120.73 204.445 1118.62 Q206.783 1116.52 206.783 1112.91 Q206.783 1109.3 204.445 1107.19 Q202.107 1105.08 198.102 1105.08 Q196.227 1105.08 194.352 1105.5 Q192.5 1105.92 190.556 1106.8 L190.556 1089.44 Z" fill="#000000" fill-rule="evenodd" fill-opacity="1" /><path clip-path="url(#clip820)" d="M114.931 934.355 L122.57 934.355 L122.57 907.989 L114.26 909.656 L114.26 905.397 L122.524 903.73 L127.2 903.73 L127.2 934.355 L134.839 934.355 L134.839 938.29 L114.931 938.29 L114.931 934.355 Z" fill="#000000" fill-rule="evenodd" fill-opacity="1" /><path clip-path="url(#clip820)" d="M145.093 934.355 L152.732 934.355 L152.732 907.989 L144.422 909.656 L144.422 905.397 L152.686 903.73 L157.362 903.73 L157.362 934.355 L165.001 934.355 L165.001 938.29 L145.093 938.29 L145.093 934.355 Z" fill="#000000" fill-rule="evenodd" fill-opacity="1" /><path clip-path="url(#clip820)" d="M174.445 932.411 L179.329 932.411 L179.329 938.29 L174.445 938.29 L174.445 932.411 Z" fill="#000000" fill-rule="evenodd" fill-opacity="1" /><path clip-path="url(#clip820)" d="M199.514 906.809 Q195.903 906.809 194.075 910.374 Q192.269 913.915 192.269 921.045 Q192.269 928.151 194.075 931.716 Q195.903 935.258 199.514 935.258 Q203.149 935.258 204.954 931.716 Q206.783 928.151 206.783 921.045 Q206.783 913.915 204.954 910.374 Q203.149 906.809 199.514 906.809 M199.514 903.105 Q205.324 903.105 208.38 907.712 Q211.459 912.295 211.459 921.045 Q211.459 929.772 208.38 934.378 Q205.324 938.962 199.514 938.962 Q193.704 938.962 190.625 934.378 Q187.57 929.772 187.57 921.045 Q187.57 912.295 190.625 907.712 Q193.704 903.105 199.514 903.105 Z" fill="#000000" fill-rule="evenodd" fill-opacity="1" /><path clip-path="url(#clip820)" d="M115.927 748.65 L123.566 748.65 L123.566 722.285 L115.256 723.951 L115.256 719.692 L123.519 718.025 L128.195 718.025 L128.195 748.65 L135.834 748.65 L135.834 752.585 L115.927 752.585 L115.927 748.65 Z" fill="#000000" fill-rule="evenodd" fill-opacity="1" /><path clip-path="url(#clip820)" d="M146.089 748.65 L153.728 748.65 L153.728 722.285 L145.417 723.951 L145.417 719.692 L153.681 718.025 L158.357 718.025 L158.357 748.65 L165.996 748.65 L165.996 752.585 L146.089 752.585 L146.089 748.65 Z" fill="#000000" fill-rule="evenodd" fill-opacity="1" /><path clip-path="url(#clip820)" d="M175.44 746.706 L180.325 746.706 L180.325 752.585 L175.44 752.585 L175.44 746.706 Z" fill="#000000" fill-rule="evenodd" fill-opacity="1" /><path clip-path="url(#clip820)" d="M190.556 718.025 L208.912 718.025 L208.912 721.961 L194.838 721.961 L194.838 730.433 Q195.857 730.086 196.875 729.923 Q197.894 729.738 198.912 729.738 Q204.699 729.738 208.079 732.91 Q211.459 736.081 211.459 741.497 Q211.459 747.076 207.987 750.178 Q204.514 753.257 198.195 753.257 Q196.019 753.257 193.75 752.886 Q191.505 752.516 189.098 751.775 L189.098 747.076 Q191.181 748.21 193.403 748.766 Q195.625 749.322 198.102 749.322 Q202.107 749.322 204.445 747.215 Q206.783 745.109 206.783 741.497 Q206.783 737.886 204.445 735.78 Q202.107 733.673 198.102 733.673 Q196.227 733.673 194.352 734.09 Q192.5 734.507 190.556 735.386 L190.556 718.025 Z" fill="#000000" fill-rule="evenodd" fill-opacity="1" /><path clip-path="url(#clip820)" d="M114.931 562.945 L122.57 562.945 L122.57 536.58 L114.26 538.246 L114.26 533.987 L122.524 532.321 L127.2 532.321 L127.2 562.945 L134.839 562.945 L134.839 566.881 L114.931 566.881 L114.931 562.945 Z" fill="#000000" fill-rule="evenodd" fill-opacity="1" /><path clip-path="url(#clip820)" d="M148.311 562.945 L164.63 562.945 L164.63 566.881 L142.686 566.881 L142.686 562.945 Q145.348 560.191 149.931 555.561 Q154.538 550.908 155.718 549.566 Q157.964 547.043 158.843 545.307 Q159.746 543.547 159.746 541.857 Q159.746 539.103 157.802 537.367 Q155.88 535.631 152.778 535.631 Q150.579 535.631 148.126 536.395 Q145.695 537.158 142.917 538.709 L142.917 533.987 Q145.741 532.853 148.195 532.274 Q150.649 531.696 152.686 531.696 Q158.056 531.696 161.251 534.381 Q164.445 537.066 164.445 541.557 Q164.445 543.686 163.635 545.607 Q162.848 547.506 160.741 550.098 Q160.163 550.769 157.061 553.987 Q153.959 557.181 148.311 562.945 Z" fill="#000000" fill-rule="evenodd" fill-opacity="1" /><path clip-path="url(#clip820)" d="M174.445 561.001 L179.329 561.001 L179.329 566.881 L174.445 566.881 L174.445 561.001 Z" fill="#000000" fill-rule="evenodd" fill-opacity="1" /><path clip-path="url(#clip820)" d="M199.514 535.399 Q195.903 535.399 194.075 538.964 Q192.269 542.506 192.269 549.635 Q192.269 556.742 194.075 560.306 Q195.903 563.848 199.514 563.848 Q203.149 563.848 204.954 560.306 Q206.783 556.742 206.783 549.635 Q206.783 542.506 204.954 538.964 Q203.149 535.399 199.514 535.399 M199.514 531.696 Q205.324 531.696 208.38 536.302 Q211.459 540.885 211.459 549.635 Q211.459 558.362 208.38 562.968 Q205.324 567.552 199.514 567.552 Q193.704 567.552 190.625 562.968 Q187.57 558.362 187.57 549.635 Q187.57 540.885 190.625 536.302 Q193.704 531.696 199.514 531.696 Z" fill="#000000" fill-rule="evenodd" fill-opacity="1" /><path clip-path="url(#clip820)" d="M115.927 377.24 L123.566 377.24 L123.566 350.875 L115.256 352.542 L115.256 348.282 L123.519 346.616 L128.195 346.616 L128.195 377.24 L135.834 377.24 L135.834 381.176 L115.927 381.176 L115.927 377.24 Z" fill="#000000" fill-rule="evenodd" fill-opacity="1" /><path clip-path="url(#clip820)" d="M149.306 377.24 L165.626 377.24 L165.626 381.176 L143.681 381.176 L143.681 377.24 Q146.343 374.486 150.927 369.856 Q155.533 365.203 156.714 363.861 Q158.959 361.338 159.839 359.602 Q160.741 357.842 160.741 356.153 Q160.741 353.398 158.797 351.662 Q156.876 349.926 153.774 349.926 Q151.575 349.926 149.121 350.69 Q146.691 351.454 143.913 353.004 L143.913 348.282 Q146.737 347.148 149.191 346.569 Q151.644 345.991 153.681 345.991 Q159.052 345.991 162.246 348.676 Q165.44 351.361 165.44 355.852 Q165.44 357.981 164.63 359.903 Q163.843 361.801 161.737 364.393 Q161.158 365.065 158.056 368.282 Q154.954 371.477 149.306 377.24 Z" fill="#000000" fill-rule="evenodd" fill-opacity="1" /><path clip-path="url(#clip820)" d="M175.44 375.296 L180.325 375.296 L180.325 381.176 L175.44 381.176 L175.44 375.296 Z" fill="#000000" fill-rule="evenodd" fill-opacity="1" /><path clip-path="url(#clip820)" d="M190.556 346.616 L208.912 346.616 L208.912 350.551 L194.838 350.551 L194.838 359.023 Q195.857 358.676 196.875 358.514 Q197.894 358.329 198.912 358.329 Q204.699 358.329 208.079 361.5 Q211.459 364.671 211.459 370.088 Q211.459 375.666 207.987 378.768 Q204.514 381.847 198.195 381.847 Q196.019 381.847 193.75 381.477 Q191.505 381.106 189.098 380.365 L189.098 375.666 Q191.181 376.801 193.403 377.356 Q195.625 377.912 198.102 377.912 Q202.107 377.912 204.445 375.805 Q206.783 373.699 206.783 370.088 Q206.783 366.477 204.445 364.37 Q202.107 362.264 198.102 362.264 Q196.227 362.264 194.352 362.68 Q192.5 363.097 190.556 363.977 L190.556 346.616 Z" fill="#000000" fill-rule="evenodd" fill-opacity="1" /><path clip-path="url(#clip820)" d="M114.931 191.536 L122.57 191.536 L122.57 165.17 L114.26 166.837 L114.26 162.577 L122.524 160.911 L127.2 160.911 L127.2 191.536 L134.839 191.536 L134.839 195.471 L114.931 195.471 L114.931 191.536 Z" fill="#000000" fill-rule="evenodd" fill-opacity="1" /><path clip-path="url(#clip820)" d="M158.45 176.837 Q161.806 177.554 163.681 179.823 Q165.579 182.091 165.579 185.425 Q165.579 190.54 162.061 193.341 Q158.542 196.142 152.061 196.142 Q149.885 196.142 147.57 195.702 Q145.279 195.286 142.825 194.429 L142.825 189.915 Q144.769 191.049 147.084 191.628 Q149.399 192.207 151.922 192.207 Q156.32 192.207 158.612 190.471 Q160.927 188.735 160.927 185.425 Q160.927 182.369 158.774 180.656 Q156.644 178.92 152.825 178.92 L148.797 178.92 L148.797 175.077 L153.01 175.077 Q156.459 175.077 158.288 173.712 Q160.116 172.323 160.116 169.73 Q160.116 167.068 158.218 165.656 Q156.343 164.221 152.825 164.221 Q150.903 164.221 148.704 164.638 Q146.505 165.054 143.866 165.934 L143.866 161.767 Q146.529 161.027 148.843 160.656 Q151.181 160.286 153.241 160.286 Q158.565 160.286 161.667 162.716 Q164.769 165.124 164.769 169.244 Q164.769 172.114 163.126 174.105 Q161.482 176.073 158.45 176.837 Z" fill="#000000" fill-rule="evenodd" fill-opacity="1" /><path clip-path="url(#clip820)" d="M174.445 189.591 L179.329 189.591 L179.329 195.471 L174.445 195.471 L174.445 189.591 Z" fill="#000000" fill-rule="evenodd" fill-opacity="1" /><path clip-path="url(#clip820)" d="M199.514 163.989 Q195.903 163.989 194.075 167.554 Q192.269 171.096 192.269 178.225 Q192.269 185.332 194.075 188.897 Q195.903 192.438 199.514 192.438 Q203.149 192.438 204.954 188.897 Q206.783 185.332 206.783 178.225 Q206.783 171.096 204.954 167.554 Q203.149 163.989 199.514 163.989 M199.514 160.286 Q205.324 160.286 208.38 164.892 Q211.459 169.476 211.459 178.225 Q211.459 186.952 208.38 191.559 Q205.324 196.142 199.514 196.142 Q193.704 196.142 190.625 191.559 Q187.57 186.952 187.57 178.225 Q187.57 169.476 190.625 164.892 Q193.704 160.286 199.514 160.286 Z" fill="#000000" fill-rule="evenodd" fill-opacity="1" /><path clip-path="url(#clip820)" d="M67.3143 636.577 Q73.68 639.06 75.6216 641.415 Q77.5631 643.771 77.5631 647.717 L77.5631 652.396 L72.6615 652.396 L72.6615 648.959 Q72.6615 646.54 71.5157 645.203 Q70.3699 643.866 66.1048 642.243 L63.4312 641.192 L28.3562 655.611 L28.3562 649.404 L56.238 638.264 L28.3562 627.124 L28.3562 620.918 L67.3143 636.577 Z" fill="#000000" fill-rule="evenodd" fill-opacity="1" /><path clip-path="url(#clip820)" d="M1082.03 14.0809 L1082.03 22.0612 Q1077.37 19.8332 1073.24 18.7395 Q1069.1 17.6457 1065.26 17.6457 Q1058.57 17.6457 1054.93 20.2383 Q1051.32 22.8309 1051.32 27.611 Q1051.32 31.6214 1053.71 33.6873 Q1056.14 35.7128 1062.87 36.9686 L1067.81 37.9813 Q1076.96 39.7232 1081.3 44.1387 Q1085.67 48.5136 1085.67 55.8863 Q1085.67 64.6767 1079.76 69.2137 Q1073.88 73.7508 1062.5 73.7508 Q1058.21 73.7508 1053.35 72.7785 Q1048.53 71.8063 1043.34 69.9024 L1043.34 61.4765 Q1048.32 64.2716 1053.1 65.6895 Q1057.88 67.1073 1062.5 67.1073 Q1069.51 67.1073 1073.32 64.3527 Q1077.13 61.598 1077.13 56.4939 Q1077.13 52.0379 1074.37 49.5264 Q1071.66 47.0148 1065.42 45.759 L1060.44 44.7868 Q1051.28 42.9639 1047.19 39.075 Q1043.1 35.1862 1043.1 28.2591 Q1043.1 20.2383 1048.73 15.6203 Q1054.4 11.0023 1064.32 11.0023 Q1068.58 11.0023 1072.99 11.7719 Q1077.41 12.5416 1082.03 14.0809 Z" fill="#000000" fill-rule="evenodd" fill-opacity="1" /><path clip-path="url(#clip820)" d="M1105.32 65.7705 L1105.32 89.8329 L1097.83 89.8329 L1097.83 27.2059 L1105.32 27.2059 L1105.32 34.0924 Q1107.67 30.0415 1111.23 28.0971 Q1114.84 26.1121 1119.82 26.1121 Q1128.09 26.1121 1133.23 32.6746 Q1138.42 39.2371 1138.42 49.9314 Q1138.42 60.6258 1133.23 67.1883 Q1128.09 73.7508 1119.82 73.7508 Q1114.84 73.7508 1111.23 71.8063 Q1107.67 69.8214 1105.32 65.7705 M1130.68 49.9314 Q1130.68 41.7081 1127.28 37.0496 Q1123.91 32.3505 1118 32.3505 Q1112.08 32.3505 1108.68 37.0496 Q1105.32 41.7081 1105.32 49.9314 Q1105.32 58.1548 1108.68 62.8538 Q1112.08 67.5124 1118 67.5124 Q1123.91 67.5124 1127.28 62.8538 Q1130.68 58.1548 1130.68 49.9314 Z" fill="#000000" fill-rule="evenodd" fill-opacity="1" /><path clip-path="url(#clip820)" d="M1150.77 9.54393 L1158.22 9.54393 L1158.22 72.576 L1150.77 72.576 L1150.77 9.54393 Z" fill="#000000" fill-rule="evenodd" fill-opacity="1" /><path clip-path="url(#clip820)" d="M1173.82 27.2059 L1181.27 27.2059 L1181.27 72.576 L1173.82 72.576 L1173.82 27.2059 M1173.82 9.54393 L1181.27 9.54393 L1181.27 18.9825 L1173.82 18.9825 L1173.82 9.54393 Z" fill="#000000" fill-rule="evenodd" fill-opacity="1" /><path clip-path="url(#clip820)" d="M1234.58 45.1919 L1234.58 72.576 L1227.13 72.576 L1227.13 45.4349 Q1227.13 38.994 1224.62 35.7938 Q1222.11 32.5936 1217.08 32.5936 Q1211.05 32.5936 1207.56 36.4419 Q1204.08 40.2903 1204.08 46.9338 L1204.08 72.576 L1196.59 72.576 L1196.59 27.2059 L1204.08 27.2059 L1204.08 34.2544 Q1206.75 30.163 1210.36 28.1376 Q1214.01 26.1121 1218.74 26.1121 Q1226.56 26.1121 1230.57 30.9732 Q1234.58 35.7938 1234.58 45.1919 Z" fill="#000000" fill-rule="evenodd" fill-opacity="1" /><path clip-path="url(#clip820)" d="M1288.26 48.0275 L1288.26 51.6733 L1253.99 51.6733 Q1254.47 59.3701 1258.61 63.421 Q1262.78 67.4314 1270.19 67.4314 Q1274.49 67.4314 1278.5 66.3781 Q1282.55 65.3249 1286.52 63.2184 L1286.52 70.267 Q1282.51 71.9684 1278.29 72.8596 Q1274.08 73.7508 1269.75 73.7508 Q1258.89 73.7508 1252.53 67.4314 Q1246.21 61.1119 1246.21 50.3365 Q1246.21 39.1965 1252.21 32.6746 Q1258.24 26.1121 1268.45 26.1121 Q1277.6 26.1121 1282.91 32.0264 Q1288.26 37.9003 1288.26 48.0275 M1280.8 45.84 Q1280.72 39.7232 1277.36 36.0774 Q1274.04 32.4315 1268.53 32.4315 Q1262.29 32.4315 1258.52 35.9558 Q1254.8 39.4801 1254.23 45.8805 L1280.8 45.84 Z" fill="#000000" fill-rule="evenodd" fill-opacity="1" /><path clip-path="url(#clip820)" d="M1349.83 9.54393 L1349.83 15.7418 L1342.7 15.7418 Q1338.69 15.7418 1337.11 17.3622 Q1335.57 18.9825 1335.57 23.1955 L1335.57 27.2059 L1347.85 27.2059 L1347.85 32.9987 L1335.57 32.9987 L1335.57 72.576 L1328.08 72.576 L1328.08 32.9987 L1320.95 32.9987 L1320.95 27.2059 L1328.08 27.2059 L1328.08 24.0462 Q1328.08 16.471 1331.6 13.0277 Q1335.13 9.54393 1342.78 9.54393 L1349.83 9.54393 Z" fill="#000000" fill-rule="evenodd" fill-opacity="1" /><path clip-path="url(#clip820)" d="M1356.07 27.2059 L1363.52 27.2059 L1363.52 72.576 L1356.07 72.576 L1356.07 27.2059 M1356.07 9.54393 L1363.52 9.54393 L1363.52 18.9825 L1356.07 18.9825 L1356.07 9.54393 Z" fill="#000000" fill-rule="evenodd" fill-opacity="1" /><path clip-path="url(#clip820)" d="M1386.49 14.324 L1386.49 27.2059 L1401.85 27.2059 L1401.85 32.9987 L1386.49 32.9987 L1386.49 57.6282 Q1386.49 63.1779 1387.99 64.7578 Q1389.53 66.3376 1394.19 66.3376 L1401.85 66.3376 L1401.85 72.576 L1394.19 72.576 Q1385.56 72.576 1382.28 69.3758 Q1379 66.1351 1379 57.6282 L1379 32.9987 L1373.53 32.9987 L1373.53 27.2059 L1379 27.2059 L1379 14.324 L1386.49 14.324 Z" fill="#000000" fill-rule="evenodd" fill-opacity="1" /><path clip-path="url(#clip820)" d="M1419.02 14.324 L1419.02 27.2059 L1434.37 27.2059 L1434.37 32.9987 L1419.02 32.9987 L1419.02 57.6282 Q1419.02 63.1779 1420.52 64.7578 Q1422.06 66.3376 1426.72 66.3376 L1434.37 66.3376 L1434.37 72.576 L1426.72 72.576 Q1418.09 72.576 1414.81 69.3758 Q1411.53 66.1351 1411.53 57.6282 L1411.53 32.9987 L1406.06 32.9987 L1406.06 27.2059 L1411.53 27.2059 L1411.53 14.324 L1419.02 14.324 Z" fill="#000000" fill-rule="evenodd" fill-opacity="1" /><path clip-path="url(#clip820)" d="M1444.18 27.2059 L1451.63 27.2059 L1451.63 72.576 L1444.18 72.576 L1444.18 27.2059 M1444.18 9.54393 L1451.63 9.54393 L1451.63 18.9825 L1444.18 18.9825 L1444.18 9.54393 Z" fill="#000000" fill-rule="evenodd" fill-opacity="1" /><path clip-path="url(#clip820)" d="M1504.94 45.1919 L1504.94 72.576 L1497.49 72.576 L1497.49 45.4349 Q1497.49 38.994 1494.98 35.7938 Q1492.46 32.5936 1487.44 32.5936 Q1481.41 32.5936 1477.92 36.4419 Q1474.44 40.2903 1474.44 46.9338 L1474.44 72.576 L1466.94 72.576 L1466.94 27.2059 L1474.44 27.2059 L1474.44 34.2544 Q1477.11 30.163 1480.72 28.1376 Q1484.36 26.1121 1489.1 26.1121 Q1496.92 26.1121 1500.93 30.9732 Q1504.94 35.7938 1504.94 45.1919 Z" fill="#000000" fill-rule="evenodd" fill-opacity="1" /><path clip-path="url(#clip820)" d="M1549.66 49.3643 Q1549.66 41.2625 1546.3 36.8065 Q1542.98 32.3505 1536.94 32.3505 Q1530.95 32.3505 1527.59 36.8065 Q1524.26 41.2625 1524.26 49.3643 Q1524.26 57.4256 1527.59 61.8816 Q1530.95 66.3376 1536.94 66.3376 Q1542.98 66.3376 1546.3 61.8816 Q1549.66 57.4256 1549.66 49.3643 M1557.12 66.9452 Q1557.12 78.5308 1551.97 84.1616 Q1546.83 89.8329 1536.21 89.8329 Q1532.28 89.8329 1528.8 89.2252 Q1525.32 88.6581 1522.04 87.4428 L1522.04 80.1917 Q1525.32 81.9741 1528.52 82.8248 Q1531.72 83.6755 1535.04 83.6755 Q1542.37 83.6755 1546.02 79.8271 Q1549.66 76.0193 1549.66 68.282 L1549.66 64.5957 Q1547.35 68.6061 1543.75 70.5911 Q1540.14 72.576 1535.12 72.576 Q1526.78 72.576 1521.67 66.2161 Q1516.57 59.8562 1516.57 49.3643 Q1516.57 38.832 1521.67 32.472 Q1526.78 26.1121 1535.12 26.1121 Q1540.14 26.1121 1543.75 28.0971 Q1547.35 30.082 1549.66 34.0924 L1549.66 27.2059 L1557.12 27.2059 L1557.12 66.9452 Z" fill="#000000" fill-rule="evenodd" fill-opacity="1" /><circle clip-path="url(#clip822)" cx="307.043" cy="400.664" r="14.4" fill="#009af9" fill-rule="evenodd" fill-opacity="1" stroke="#000000" stroke-opacity="1" stroke-width="3.2"/>
<circle clip-path="url(#clip822)" cx="326.904" cy="460.432" r="14.4" fill="#009af9" fill-rule="evenodd" fill-opacity="1" stroke="#000000" stroke-opacity="1" stroke-width="3.2"/>
<circle clip-path="url(#clip822)" cx="346.765" cy="548.256" r="14.4" fill="#009af9" fill-rule="evenodd" fill-opacity="1" stroke="#000000" stroke-opacity="1" stroke-width="3.2"/>
<circle clip-path="url(#clip822)" cx="366.626" cy="680.286" r="14.4" fill="#009af9" fill-rule="evenodd" fill-opacity="1" stroke="#000000" stroke-opacity="1" stroke-width="3.2"/>
<circle clip-path="url(#clip822)" cx="386.488" cy="581.342" r="14.4" fill="#009af9" fill-rule="evenodd" fill-opacity="1" stroke="#000000" stroke-opacity="1" stroke-width="3.2"/>
<circle clip-path="url(#clip822)" cx="406.349" cy="602.281" r="14.4" fill="#009af9" fill-rule="evenodd" fill-opacity="1" stroke="#000000" stroke-opacity="1" stroke-width="3.2"/>
<circle clip-path="url(#clip822)" cx="426.21" cy="727.933" r="14.4" fill="#009af9" fill-rule="evenodd" fill-opacity="1" stroke="#000000" stroke-opacity="1" stroke-width="3.2"/>
<circle clip-path="url(#clip822)" cx="446.072" cy="681.925" r="14.4" fill="#009af9" fill-rule="evenodd" fill-opacity="1" stroke="#000000" stroke-opacity="1" stroke-width="3.2"/>
<circle clip-path="url(#clip822)" cx="465.933" cy="743.567" r="14.4" fill="#009af9" fill-rule="evenodd" fill-opacity="1" stroke="#000000" stroke-opacity="1" stroke-width="3.2"/>
<circle clip-path="url(#clip822)" cx="485.794" cy="708.909" r="14.4" fill="#009af9" fill-rule="evenodd" fill-opacity="1" stroke="#000000" stroke-opacity="1" stroke-width="3.2"/>
<circle clip-path="url(#clip822)" cx="505.656" cy="788.563" r="14.4" fill="#009af9" fill-rule="evenodd" fill-opacity="1" stroke="#000000" stroke-opacity="1" stroke-width="3.2"/>
<circle clip-path="url(#clip822)" cx="525.517" cy="754.297" r="14.4" fill="#009af9" fill-rule="evenodd" fill-opacity="1" stroke="#000000" stroke-opacity="1" stroke-width="3.2"/>
<circle clip-path="url(#clip822)" cx="545.378" cy="796.127" r="14.4" fill="#009af9" fill-rule="evenodd" fill-opacity="1" stroke="#000000" stroke-opacity="1" stroke-width="3.2"/>
<circle clip-path="url(#clip822)" cx="565.239" cy="986.795" r="14.4" fill="#009af9" fill-rule="evenodd" fill-opacity="1" stroke="#000000" stroke-opacity="1" stroke-width="3.2"/>
<circle clip-path="url(#clip822)" cx="585.101" cy="969.117" r="14.4" fill="#009af9" fill-rule="evenodd" fill-opacity="1" stroke="#000000" stroke-opacity="1" stroke-width="3.2"/>
<circle clip-path="url(#clip822)" cx="604.962" cy="937.082" r="14.4" fill="#009af9" fill-rule="evenodd" fill-opacity="1" stroke="#000000" stroke-opacity="1" stroke-width="3.2"/>
<circle clip-path="url(#clip822)" cx="624.823" cy="861.975" r="14.4" fill="#009af9" fill-rule="evenodd" fill-opacity="1" stroke="#000000" stroke-opacity="1" stroke-width="3.2"/>
<circle clip-path="url(#clip822)" cx="644.685" cy="942.814" r="14.4" fill="#009af9" fill-rule="evenodd" fill-opacity="1" stroke="#000000" stroke-opacity="1" stroke-width="3.2"/>
<circle clip-path="url(#clip822)" cx="664.546" cy="932.485" r="14.4" fill="#009af9" fill-rule="evenodd" fill-opacity="1" stroke="#000000" stroke-opacity="1" stroke-width="3.2"/>
<circle clip-path="url(#clip822)" cx="684.407" cy="1123.92" r="14.4" fill="#009af9" fill-rule="evenodd" fill-opacity="1" stroke="#000000" stroke-opacity="1" stroke-width="3.2"/>
<circle clip-path="url(#clip822)" cx="704.268" cy="1007.06" r="14.4" fill="#009af9" fill-rule="evenodd" fill-opacity="1" stroke="#000000" stroke-opacity="1" stroke-width="3.2"/>
<circle clip-path="url(#clip822)" cx="724.13" cy="999.451" r="14.4" fill="#009af9" fill-rule="evenodd" fill-opacity="1" stroke="#000000" stroke-opacity="1" stroke-width="3.2"/>
<circle clip-path="url(#clip822)" cx="743.991" cy="814.049" r="14.4" fill="#009af9" fill-rule="evenodd" fill-opacity="1" stroke="#000000" stroke-opacity="1" stroke-width="3.2"/>
<circle clip-path="url(#clip822)" cx="763.852" cy="817.547" r="14.4" fill="#009af9" fill-rule="evenodd" fill-opacity="1" stroke="#000000" stroke-opacity="1" stroke-width="3.2"/>
<circle clip-path="url(#clip822)" cx="783.714" cy="787.769" r="14.4" fill="#009af9" fill-rule="evenodd" fill-opacity="1" stroke="#000000" stroke-opacity="1" stroke-width="3.2"/>
<circle clip-path="url(#clip822)" cx="803.575" cy="848.041" r="14.4" fill="#009af9" fill-rule="evenodd" fill-opacity="1" stroke="#000000" stroke-opacity="1" stroke-width="3.2"/>
<circle clip-path="url(#clip822)" cx="823.436" cy="779.307" r="14.4" fill="#009af9" fill-rule="evenodd" fill-opacity="1" stroke="#000000" stroke-opacity="1" stroke-width="3.2"/>
<circle clip-path="url(#clip822)" cx="843.298" cy="769.685" r="14.4" fill="#009af9" fill-rule="evenodd" fill-opacity="1" stroke="#000000" stroke-opacity="1" stroke-width="3.2"/>
<circle clip-path="url(#clip822)" cx="863.159" cy="859.024" r="14.4" fill="#009af9" fill-rule="evenodd" fill-opacity="1" stroke="#000000" stroke-opacity="1" stroke-width="3.2"/>
<circle clip-path="url(#clip822)" cx="883.02" cy="672.952" r="14.4" fill="#009af9" fill-rule="evenodd" fill-opacity="1" stroke="#000000" stroke-opacity="1" stroke-width="3.2"/>
<circle clip-path="url(#clip822)" cx="902.881" cy="789.866" r="14.4" fill="#009af9" fill-rule="evenodd" fill-opacity="1" stroke="#000000" stroke-opacity="1" stroke-width="3.2"/>
<circle clip-path="url(#clip822)" cx="922.743" cy="696.42" r="14.4" fill="#009af9" fill-rule="evenodd" fill-opacity="1" stroke="#000000" stroke-opacity="1" stroke-width="3.2"/>
<circle clip-path="url(#clip822)" cx="942.604" cy="674.126" r="14.4" fill="#009af9" fill-rule="evenodd" fill-opacity="1" stroke="#000000" stroke-opacity="1" stroke-width="3.2"/>
<circle clip-path="url(#clip822)" cx="962.465" cy="578.45" r="14.4" fill="#009af9" fill-rule="evenodd" fill-opacity="1" stroke="#000000" stroke-opacity="1" stroke-width="3.2"/>
<circle clip-path="url(#clip822)" cx="982.327" cy="494.886" r="14.4" fill="#009af9" fill-rule="evenodd" fill-opacity="1" stroke="#000000" stroke-opacity="1" stroke-width="3.2"/>
<circle clip-path="url(#clip822)" cx="1002.19" cy="422.918" r="14.4" fill="#009af9" fill-rule="evenodd" fill-opacity="1" stroke="#000000" stroke-opacity="1" stroke-width="3.2"/>
<circle clip-path="url(#clip822)" cx="1022.05" cy="488.058" r="14.4" fill="#009af9" fill-rule="evenodd" fill-opacity="1" stroke="#000000" stroke-opacity="1" stroke-width="3.2"/>
<circle clip-path="url(#clip822)" cx="1041.91" cy="436.361" r="14.4" fill="#009af9" fill-rule="evenodd" fill-opacity="1" stroke="#000000" stroke-opacity="1" stroke-width="3.2"/>
<circle clip-path="url(#clip822)" cx="1061.77" cy="354.121" r="14.4" fill="#009af9" fill-rule="evenodd" fill-opacity="1" stroke="#000000" stroke-opacity="1" stroke-width="3.2"/>
<circle clip-path="url(#clip822)" cx="1081.63" cy="416.071" r="14.4" fill="#009af9" fill-rule="evenodd" fill-opacity="1" stroke="#000000" stroke-opacity="1" stroke-width="3.2"/>
<circle clip-path="url(#clip822)" cx="1101.49" cy="183.175" r="14.4" fill="#009af9" fill-rule="evenodd" fill-opacity="1" stroke="#000000" stroke-opacity="1" stroke-width="3.2"/>
<circle clip-path="url(#clip822)" cx="1121.36" cy="345.917" r="14.4" fill="#009af9" fill-rule="evenodd" fill-opacity="1" stroke="#000000" stroke-opacity="1" stroke-width="3.2"/>
<circle clip-path="url(#clip822)" cx="1141.22" cy="346.697" r="14.4" fill="#009af9" fill-rule="evenodd" fill-opacity="1" stroke="#000000" stroke-opacity="1" stroke-width="3.2"/>
<circle clip-path="url(#clip822)" cx="1161.08" cy="253.425" r="14.4" fill="#009af9" fill-rule="evenodd" fill-opacity="1" stroke="#000000" stroke-opacity="1" stroke-width="3.2"/>
<circle clip-path="url(#clip822)" cx="1180.94" cy="184.823" r="14.4" fill="#009af9" fill-rule="evenodd" fill-opacity="1" stroke="#000000" stroke-opacity="1" stroke-width="3.2"/>
<circle clip-path="url(#clip822)" cx="1200.8" cy="222.841" r="14.4" fill="#009af9" fill-rule="evenodd" fill-opacity="1" stroke="#000000" stroke-opacity="1" stroke-width="3.2"/>
<circle clip-path="url(#clip822)" cx="1220.66" cy="190.449" r="14.4" fill="#009af9" fill-rule="evenodd" fill-opacity="1" stroke="#000000" stroke-opacity="1" stroke-width="3.2"/>
<circle clip-path="url(#clip822)" cx="1240.52" cy="206.852" r="14.4" fill="#009af9" fill-rule="evenodd" fill-opacity="1" stroke="#000000" stroke-opacity="1" stroke-width="3.2"/>
<circle clip-path="url(#clip822)" cx="1260.38" cy="195.116" r="14.4" fill="#009af9" fill-rule="evenodd" fill-opacity="1" stroke="#000000" stroke-opacity="1" stroke-width="3.2"/>
<circle clip-path="url(#clip822)" cx="1280.25" cy="161.189" r="14.4" fill="#009af9" fill-rule="evenodd" fill-opacity="1" stroke="#000000" stroke-opacity="1" stroke-width="3.2"/>
<circle clip-path="url(#clip822)" cx="1300.11" cy="200.676" r="14.4" fill="#009af9" fill-rule="evenodd" fill-opacity="1" stroke="#000000" stroke-opacity="1" stroke-width="3.2"/>
<circle clip-path="url(#clip822)" cx="1319.97" cy="152.611" r="14.4" fill="#009af9" fill-rule="evenodd" fill-opacity="1" stroke="#000000" stroke-opacity="1" stroke-width="3.2"/>
<circle clip-path="url(#clip822)" cx="1339.83" cy="286.326" r="14.4" fill="#009af9" fill-rule="evenodd" fill-opacity="1" stroke="#000000" stroke-opacity="1" stroke-width="3.2"/>
<circle clip-path="url(#clip822)" cx="1359.69" cy="216.96" r="14.4" fill="#009af9" fill-rule="evenodd" fill-opacity="1" stroke="#000000" stroke-opacity="1" stroke-width="3.2"/>
<circle clip-path="url(#clip822)" cx="1379.55" cy="164.52" r="14.4" fill="#009af9" fill-rule="evenodd" fill-opacity="1" stroke="#000000" stroke-opacity="1" stroke-width="3.2"/>
<circle clip-path="url(#clip822)" cx="1399.41" cy="308.172" r="14.4" fill="#009af9" fill-rule="evenodd" fill-opacity="1" stroke="#000000" stroke-opacity="1" stroke-width="3.2"/>
<circle clip-path="url(#clip822)" cx="1419.28" cy="188.005" r="14.4" fill="#009af9" fill-rule="evenodd" fill-opacity="1" stroke="#000000" stroke-opacity="1" stroke-width="3.2"/>
<circle clip-path="url(#clip822)" cx="1439.14" cy="354.527" r="14.4" fill="#009af9" fill-rule="evenodd" fill-opacity="1" stroke="#000000" stroke-opacity="1" stroke-width="3.2"/>
<circle clip-path="url(#clip822)" cx="1459" cy="263.193" r="14.4" fill="#009af9" fill-rule="evenodd" fill-opacity="1" stroke="#000000" stroke-opacity="1" stroke-width="3.2"/>
<circle clip-path="url(#clip822)" cx="1478.86" cy="411.573" r="14.4" fill="#009af9" fill-rule="evenodd" fill-opacity="1" stroke="#000000" stroke-opacity="1" stroke-width="3.2"/>
<circle clip-path="url(#clip822)" cx="1498.72" cy="444.038" r="14.4" fill="#009af9" fill-rule="evenodd" fill-opacity="1" stroke="#000000" stroke-opacity="1" stroke-width="3.2"/>
<circle clip-path="url(#clip822)" cx="1518.58" cy="345.403" r="14.4" fill="#009af9" fill-rule="evenodd" fill-opacity="1" stroke="#000000" stroke-opacity="1" stroke-width="3.2"/>
<circle clip-path="url(#clip822)" cx="1538.44" cy="393.839" r="14.4" fill="#009af9" fill-rule="evenodd" fill-opacity="1" stroke="#000000" stroke-opacity="1" stroke-width="3.2"/>
<circle clip-path="url(#clip822)" cx="1558.3" cy="324.977" r="14.4" fill="#009af9" fill-rule="evenodd" fill-opacity="1" stroke="#000000" stroke-opacity="1" stroke-width="3.2"/>
<circle clip-path="url(#clip822)" cx="1578.17" cy="549.163" r="14.4" fill="#009af9" fill-rule="evenodd" fill-opacity="1" stroke="#000000" stroke-opacity="1" stroke-width="3.2"/>
<circle clip-path="url(#clip822)" cx="1598.03" cy="577.977" r="14.4" fill="#009af9" fill-rule="evenodd" fill-opacity="1" stroke="#000000" stroke-opacity="1" stroke-width="3.2"/>
<circle clip-path="url(#clip822)" cx="1617.89" cy="533.467" r="14.4" fill="#009af9" fill-rule="evenodd" fill-opacity="1" stroke="#000000" stroke-opacity="1" stroke-width="3.2"/>
<circle clip-path="url(#clip822)" cx="1637.75" cy="626.638" r="14.4" fill="#009af9" fill-rule="evenodd" fill-opacity="1" stroke="#000000" stroke-opacity="1" stroke-width="3.2"/>
<circle clip-path="url(#clip822)" cx="1657.61" cy="675.536" r="14.4" fill="#009af9" fill-rule="evenodd" fill-opacity="1" stroke="#000000" stroke-opacity="1" stroke-width="3.2"/>
<circle clip-path="url(#clip822)" cx="1677.47" cy="781.586" r="14.4" fill="#009af9" fill-rule="evenodd" fill-opacity="1" stroke="#000000" stroke-opacity="1" stroke-width="3.2"/>
<circle clip-path="url(#clip822)" cx="1697.33" cy="761.246" r="14.4" fill="#009af9" fill-rule="evenodd" fill-opacity="1" stroke="#000000" stroke-opacity="1" stroke-width="3.2"/>
<circle clip-path="url(#clip822)" cx="1717.19" cy="772.164" r="14.4" fill="#009af9" fill-rule="evenodd" fill-opacity="1" stroke="#000000" stroke-opacity="1" stroke-width="3.2"/>
<circle clip-path="url(#clip822)" cx="1737.06" cy="899.323" r="14.4" fill="#009af9" fill-rule="evenodd" fill-opacity="1" stroke="#000000" stroke-opacity="1" stroke-width="3.2"/>
<circle clip-path="url(#clip822)" cx="1756.92" cy="884.766" r="14.4" fill="#009af9" fill-rule="evenodd" fill-opacity="1" stroke="#000000" stroke-opacity="1" stroke-width="3.2"/>
<circle clip-path="url(#clip822)" cx="1776.78" cy="807.825" r="14.4" fill="#009af9" fill-rule="evenodd" fill-opacity="1" stroke="#000000" stroke-opacity="1" stroke-width="3.2"/>
<circle clip-path="url(#clip822)" cx="1796.64" cy="723.032" r="14.4" fill="#009af9" fill-rule="evenodd" fill-opacity="1" stroke="#000000" stroke-opacity="1" stroke-width="3.2"/>
<circle clip-path="url(#clip822)" cx="1816.5" cy="858.164" r="14.4" fill="#009af9" fill-rule="evenodd" fill-opacity="1" stroke="#000000" stroke-opacity="1" stroke-width="3.2"/>
<circle clip-path="url(#clip822)" cx="1836.36" cy="827.066" r="14.4" fill="#009af9" fill-rule="evenodd" fill-opacity="1" stroke="#000000" stroke-opacity="1" stroke-width="3.2"/>
<circle clip-path="url(#clip822)" cx="1856.22" cy="945.427" r="14.4" fill="#009af9" fill-rule="evenodd" fill-opacity="1" stroke="#000000" stroke-opacity="1" stroke-width="3.2"/>
<circle clip-path="url(#clip822)" cx="1876.08" cy="885.754" r="14.4" fill="#009af9" fill-rule="evenodd" fill-opacity="1" stroke="#000000" stroke-opacity="1" stroke-width="3.2"/>
<circle clip-path="url(#clip822)" cx="1895.95" cy="963.127" r="14.4" fill="#009af9" fill-rule="evenodd" fill-opacity="1" stroke="#000000" stroke-opacity="1" stroke-width="3.2"/>
<circle clip-path="url(#clip822)" cx="1915.81" cy="873.882" r="14.4" fill="#009af9" fill-rule="evenodd" fill-opacity="1" stroke="#000000" stroke-opacity="1" stroke-width="3.2"/>
<circle clip-path="url(#clip822)" cx="1935.67" cy="895.46" r="14.4" fill="#009af9" fill-rule="evenodd" fill-opacity="1" stroke="#000000" stroke-opacity="1" stroke-width="3.2"/>
<circle clip-path="url(#clip822)" cx="1955.53" cy="949.469" r="14.4" fill="#009af9" fill-rule="evenodd" fill-opacity="1" stroke="#000000" stroke-opacity="1" stroke-width="3.2"/>
<circle clip-path="url(#clip822)" cx="1975.39" cy="876.113" r="14.4" fill="#009af9" fill-rule="evenodd" fill-opacity="1" stroke="#000000" stroke-opacity="1" stroke-width="3.2"/>
<circle clip-path="url(#clip822)" cx="1995.25" cy="985.268" r="14.4" fill="#009af9" fill-rule="evenodd" fill-opacity="1" stroke="#000000" stroke-opacity="1" stroke-width="3.2"/>
<circle clip-path="url(#clip822)" cx="2015.11" cy="881.258" r="14.4" fill="#009af9" fill-rule="evenodd" fill-opacity="1" stroke="#000000" stroke-opacity="1" stroke-width="3.2"/>
<circle clip-path="url(#clip822)" cx="2034.98" cy="915.626" r="14.4" fill="#009af9" fill-rule="evenodd" fill-opacity="1" stroke="#000000" stroke-opacity="1" stroke-width="3.2"/>
<circle clip-path="url(#clip822)" cx="2054.84" cy="867.416" r="14.4" fill="#009af9" fill-rule="evenodd" fill-opacity="1" stroke="#000000" stroke-opacity="1" stroke-width="3.2"/>
<circle clip-path="url(#clip822)" cx="2074.7" cy="900.119" r="14.4" fill="#009af9" fill-rule="evenodd" fill-opacity="1" stroke="#000000" stroke-opacity="1" stroke-width="3.2"/>
<circle clip-path="url(#clip822)" cx="2094.56" cy="804.476" r="14.4" fill="#009af9" fill-rule="evenodd" fill-opacity="1" stroke="#000000" stroke-opacity="1" stroke-width="3.2"/>
<circle clip-path="url(#clip822)" cx="2114.42" cy="769.732" r="14.4" fill="#009af9" fill-rule="evenodd" fill-opacity="1" stroke="#000000" stroke-opacity="1" stroke-width="3.2"/>
<circle clip-path="url(#clip822)" cx="2134.28" cy="720.994" r="14.4" fill="#009af9" fill-rule="evenodd" fill-opacity="1" stroke="#000000" stroke-opacity="1" stroke-width="3.2"/>
<circle clip-path="url(#clip822)" cx="2154.14" cy="784.186" r="14.4" fill="#009af9" fill-rule="evenodd" fill-opacity="1" stroke="#000000" stroke-opacity="1" stroke-width="3.2"/>
<circle clip-path="url(#clip822)" cx="2174" cy="680.989" r="14.4" fill="#009af9" fill-rule="evenodd" fill-opacity="1" stroke="#000000" stroke-opacity="1" stroke-width="3.2"/>
<circle clip-path="url(#clip822)" cx="2193.87" cy="565.138" r="14.4" fill="#009af9" fill-rule="evenodd" fill-opacity="1" stroke="#000000" stroke-opacity="1" stroke-width="3.2"/>
<circle clip-path="url(#clip822)" cx="2213.73" cy="643.902" r="14.4" fill="#009af9" fill-rule="evenodd" fill-opacity="1" stroke="#000000" stroke-opacity="1" stroke-width="3.2"/>
<circle clip-path="url(#clip822)" cx="2233.59" cy="577.682" r="14.4" fill="#009af9" fill-rule="evenodd" fill-opacity="1" stroke="#000000" stroke-opacity="1" stroke-width="3.2"/>
<circle clip-path="url(#clip822)" cx="2253.45" cy="433.681" r="14.4" fill="#009af9" fill-rule="evenodd" fill-opacity="1" stroke="#000000" stroke-opacity="1" stroke-width="3.2"/>
<circle clip-path="url(#clip822)" cx="2273.31" cy="463.9" r="14.4" fill="#009af9" fill-rule="evenodd" fill-opacity="1" stroke="#000000" stroke-opacity="1" stroke-width="3.2"/>
<circle clip-path="url(#clip822)" cx="2293.17" cy="392.995" r="14.4" fill="#009af9" fill-rule="evenodd" fill-opacity="1" stroke="#000000" stroke-opacity="1" stroke-width="3.2"/>
<polyline clip-path="url(#clip822)" style="stroke:#e26f46; stroke-linecap:round; stroke-linejoin:round; stroke-width:8; stroke-opacity:1; fill:none" points="307.043,444.246 326.904,480.328 346.765,517.103 366.626,554.202 386.488,591.255 406.349,627.892 426.21,663.747 446.072,698.461 465.933,731.688 485.794,763.096 505.656,792.37 525.517,819.219 545.378,843.374 565.239,864.593 585.101,882.665 604.962,897.41 624.823,908.679 644.685,916.36 664.546,920.377 684.407,920.689 704.268,917.293 724.13,910.224 743.991,899.551 763.852,885.382 783.714,867.857 803.575,847.153 823.436,823.476 843.298,797.062 863.159,768.176 883.02,737.105 902.881,704.162 922.743,669.673 942.604,633.986 962.465,597.455 982.327,560.445 1002.19,523.328 1022.05,486.473 1041.91,450.249 1061.77,415.017 1081.63,381.13 1101.49,348.927 1121.36,318.729 1141.22,290.837 1161.08,265.531 1180.94,243.063 1200.8,223.658 1220.66,207.509 1240.52,194.779 1260.38,185.594 1280.25,180.046 1300.11,178.191 1319.97,180.046 1339.83,185.594 1359.69,194.779 1379.55,207.509 1399.41,223.658 1419.28,243.063 1439.14,265.531 1459,290.837 1478.86,318.729 1498.72,348.927 1518.58,381.13 1538.44,415.017 1558.3,450.249 1578.17,486.473 1598.03,523.328 1617.89,560.445 1637.75,597.455 1657.61,633.986 1677.47,669.673 1697.33,704.162 1717.19,737.105 1737.06,768.176 1756.92,797.062 1776.78,823.476 1796.64,847.153 1816.5,867.857 1836.36,885.382 1856.22,899.551 1876.08,910.224 1895.95,917.293 1915.81,920.689 1935.67,920.377 1955.53,916.36 1975.39,908.679 1995.25,897.41 2015.11,882.665 2034.98,864.593 2054.84,843.374 2074.7,819.219 2094.56,792.37 2114.42,763.096 2134.28,731.688 2154.14,698.461 2174,663.747 2193.87,627.892 2213.73,591.255 2233.59,554.202 2253.45,517.103 2273.31,480.328 2293.17,444.246 "/>
<polyline clip-path="url(#clip822)" style="stroke:#3da44d; stroke-linecap:round; stroke-linejoin:round; stroke-width:8; stroke-opacity:1; fill:none" points="307.043,330.503 326.904,412.828 346.765,488.192 366.626,556.811 386.488,618.907 406.349,674.698 426.21,724.402 446.072,768.24 465.933,806.43 485.794,839.192 505.656,866.744 525.517,889.305 545.378,907.096 565.239,920.334 585.101,929.239 604.962,934.03 624.823,934.926 644.685,932.147 664.546,925.911 684.407,916.437 704.268,903.945 724.13,888.654 743.991,870.783 763.852,850.551 783.714,828.177 803.575,803.88 823.436,777.879 843.298,750.394 863.159,721.644 883.02,691.847 902.881,661.223 922.743,629.99 942.604,598.369 962.465,566.578 982.327,534.836 1002.19,503.363 1022.05,472.377 1041.91,442.097 1061.77,412.744 1081.63,384.535 1101.49,357.69 1121.36,332.428 1141.22,308.968 1161.08,287.529 1180.94,268.331 1200.8,251.593 1220.66,237.533 1240.52,226.37 1260.38,218.325 1280.25,213.616 1300.11,212.461 1319.97,215.007 1339.83,221.103 1359.69,230.524 1379.55,243.047 1399.41,258.447 1419.28,276.5 1439.14,296.981 1459,319.667 1478.86,344.332 1498.72,370.753 1518.58,398.706 1538.44,427.966 1558.3,458.309 1578.17,489.51 1598.03,521.346 1617.89,553.591 1637.75,586.023 1657.61,618.416 1677.47,650.546 1697.33,682.19 1717.19,713.121 1737.06,743.118 1756.92,771.954 1776.78,799.407 1796.64,825.251 1816.5,849.262 1836.36,871.216 1856.22,890.889 1876.08,908.057 1895.95,922.494 1915.81,933.978 1935.67,942.283 1955.53,947.186 1975.39,948.462 1995.25,945.886 2015.11,939.235 2034.98,928.285 2054.84,912.81 2074.7,892.588 2094.56,867.392 2114.42,837 2134.28,801.187 2154.14,759.728 2174,712.4 2193.87,658.978 2213.73,599.237 2233.59,532.954 2253.45,459.905 2273.31,379.864 2293.17,292.608 "/>
<path clip-path="url(#clip820)" d="M867.463 1423.18 L1732.75 1423.18 L1732.75 1319.5 L867.463 1319.5  Z" fill="#ffffff" fill-rule="evenodd" fill-opacity="1"/>
<polyline clip-path="url(#clip820)" style="stroke:#000000; stroke-linecap:round; stroke-linejoin:round; stroke-width:4; stroke-opacity:1; fill:none" points="867.463,1423.18 1732.75,1423.18 1732.75,1319.5 867.463,1319.5 867.463,1423.18 "/>
<circle clip-path="url(#clip820)" cx="961.031" cy="1371.34" r="23.04" fill="#009af9" fill-rule="evenodd" fill-opacity="1" stroke="#000000" stroke-opacity="1" stroke-width="5.12"/>
<path clip-path="url(#clip820)" d="M1068.44 1391.03 Q1066.64 1395.66 1064.92 1397.07 Q1063.21 1398.48 1060.34 1398.48 L1056.94 1398.48 L1056.94 1394.92 L1059.44 1394.92 Q1061.2 1394.92 1062.17 1394.08 Q1063.14 1393.25 1064.32 1390.15 L1065.09 1388.2 L1054.6 1362.69 L1059.11 1362.69 L1067.22 1382.97 L1075.32 1362.69 L1079.83 1362.69 L1068.44 1391.03 Z" fill="#000000" fill-rule="evenodd" fill-opacity="1" /><path clip-path="url(#clip820)" d="M1087.12 1384.68 L1094.76 1384.68 L1094.76 1358.32 L1086.45 1359.99 L1086.45 1355.73 L1094.72 1354.06 L1099.39 1354.06 L1099.39 1384.68 L1107.03 1384.68 L1107.03 1388.62 L1087.12 1388.62 L1087.12 1384.68 Z" fill="#000000" fill-rule="evenodd" fill-opacity="1" /><polyline clip-path="url(#clip820)" style="stroke:#e26f46; stroke-linecap:round; stroke-linejoin:round; stroke-width:8; stroke-opacity:1; fill:none" points="1171.49,1371.34 1311.84,1371.34 "/>
<path clip-path="url(#clip820)" d="M1342.64 1355.33 L1342.64 1362.69 L1351.41 1362.69 L1351.41 1366 L1342.64 1366 L1342.64 1380.08 Q1342.64 1383.25 1343.5 1384.15 Q1344.38 1385.06 1347.04 1385.06 L1351.41 1385.06 L1351.41 1388.62 L1347.04 1388.62 Q1342.11 1388.62 1340.23 1386.79 Q1338.36 1384.94 1338.36 1380.08 L1338.36 1366 L1335.23 1366 L1335.23 1362.69 L1338.36 1362.69 L1338.36 1355.33 L1342.64 1355.33 Z" fill="#000000" fill-rule="evenodd" fill-opacity="1" /><path clip-path="url(#clip820)" d="M1372.04 1366.68 Q1371.32 1366.26 1370.46 1366.07 Q1369.63 1365.87 1368.61 1365.87 Q1365 1365.87 1363.06 1368.23 Q1361.14 1370.56 1361.14 1374.96 L1361.14 1388.62 L1356.85 1388.62 L1356.85 1362.69 L1361.14 1362.69 L1361.14 1366.72 Q1362.48 1364.36 1364.63 1363.23 Q1366.78 1362.07 1369.86 1362.07 Q1370.3 1362.07 1370.83 1362.14 Q1371.37 1362.18 1372.01 1362.3 L1372.04 1366.68 Z" fill="#000000" fill-rule="evenodd" fill-opacity="1" /><path clip-path="url(#clip820)" d="M1376.07 1378.39 L1376.07 1362.69 L1380.32 1362.69 L1380.32 1378.23 Q1380.32 1381.91 1381.76 1383.76 Q1383.2 1385.59 1386.07 1385.59 Q1389.51 1385.59 1391.51 1383.39 Q1393.52 1381.19 1393.52 1377.39 L1393.52 1362.69 L1397.78 1362.69 L1397.78 1388.62 L1393.52 1388.62 L1393.52 1384.64 Q1391.97 1387 1389.91 1388.16 Q1387.87 1389.29 1385.16 1389.29 Q1380.7 1389.29 1378.38 1386.51 Q1376.07 1383.74 1376.07 1378.39 M1386.78 1362.07 L1386.78 1362.07 Z" fill="#000000" fill-rule="evenodd" fill-opacity="1" /><path clip-path="url(#clip820)" d="M1428.73 1374.59 L1428.73 1376.68 L1409.14 1376.68 Q1409.42 1381.07 1411.78 1383.39 Q1414.17 1385.68 1418.4 1385.68 Q1420.86 1385.68 1423.15 1385.08 Q1425.46 1384.48 1427.73 1383.27 L1427.73 1387.3 Q1425.44 1388.27 1423.03 1388.78 Q1420.63 1389.29 1418.15 1389.29 Q1411.95 1389.29 1408.31 1385.68 Q1404.7 1382.07 1404.7 1375.91 Q1404.7 1369.55 1408.13 1365.82 Q1411.57 1362.07 1417.41 1362.07 Q1422.64 1362.07 1425.67 1365.45 Q1428.73 1368.81 1428.73 1374.59 M1424.47 1373.34 Q1424.42 1369.85 1422.5 1367.76 Q1420.6 1365.68 1417.45 1365.68 Q1413.89 1365.68 1411.74 1367.69 Q1409.61 1369.71 1409.28 1373.37 L1424.47 1373.34 Z" fill="#000000" fill-rule="evenodd" fill-opacity="1" /><polyline clip-path="url(#clip820)" style="stroke:#3da44d; stroke-linecap:round; stroke-linejoin:round; stroke-width:8; stroke-opacity:1; fill:none" points="1452.12,1371.34 1592.47,1371.34 "/>
<path clip-path="url(#clip820)" d="M1632.37 1352.6 L1632.37 1356.14 L1628.3 1356.14 Q1626 1356.14 1625.1 1357.07 Q1624.22 1358 1624.22 1360.4 L1624.22 1362.69 L1631.24 1362.69 L1631.24 1366 L1624.22 1366 L1624.22 1388.62 L1619.94 1388.62 L1619.94 1366 L1615.86 1366 L1615.86 1362.69 L1619.94 1362.69 L1619.94 1360.89 Q1619.94 1356.56 1621.95 1354.59 Q1623.97 1352.6 1628.34 1352.6 L1632.37 1352.6 Z" fill="#000000" fill-rule="evenodd" fill-opacity="1" /><path clip-path="url(#clip820)" d="M1635.93 1362.69 L1640.19 1362.69 L1640.19 1388.62 L1635.93 1388.62 L1635.93 1362.69 M1635.93 1352.6 L1640.19 1352.6 L1640.19 1358 L1635.93 1358 L1635.93 1352.6 Z" fill="#000000" fill-rule="evenodd" fill-opacity="1" /><path clip-path="url(#clip820)" d="M1653.32 1355.33 L1653.32 1362.69 L1662.09 1362.69 L1662.09 1366 L1653.32 1366 L1653.32 1380.08 Q1653.32 1383.25 1654.17 1384.15 Q1655.05 1385.06 1657.72 1385.06 L1662.09 1385.06 L1662.09 1388.62 L1657.72 1388.62 Q1652.79 1388.62 1650.91 1386.79 Q1649.04 1384.94 1649.04 1380.08 L1649.04 1366 L1645.91 1366 L1645.91 1362.69 L1649.04 1362.69 L1649.04 1355.33 L1653.32 1355.33 Z" fill="#000000" fill-rule="evenodd" fill-opacity="1" /></svg>
