<?xml version="1.0" encoding="utf-8"?>
<svg xmlns="http://www.w3.org/2000/svg" xmlns:xlink="http://www.w3.org/1999/xlink" width="600" height="400" viewBox="0 0 2400 1600">
<defs>
  <clipPath id="clip860">
    <rect x="0" y="0" width="2400" height="1600"/>
  </clipPath>
</defs>
<path clip-path="url(#clip860)" d="M0 1600 L2400 1600 L2400 0 L0 0  Z" fill="#ffffff" fill-rule="evenodd" fill-opacity="1"/>
<defs>
  <clipPath id="clip861">
    <rect x="480" y="0" width="1681" height="1600"/>
  </clipPath>
</defs>
<path clip-path="url(#clip860)" d="M184.191 1486.45 L2352.76 1486.45 L2352.76 47.2441 L184.191 47.2441  Z" fill="#ffffff" fill-rule="evenodd" fill-opacity="1"/>
<defs>
  <clipPath id="clip862">
    <rect x="184" y="47" width="2170" height="1440"/>
  </clipPath>
</defs>
<polyline clip-path="url(#clip862)" style="stroke:#000000; stroke-linecap:round; stroke-linejoin:round; stroke-width:2; stroke-opacity:0.1; fill:none" points="450.147,1486.45 450.147,47.2441 "/>
<polyline clip-path="url(#clip862)" style="stroke:#000000; stroke-linecap:round; stroke-linejoin:round; stroke-width:2; stroke-opacity:0.1; fill:none" points="859.31,1486.45 859.31,47.2441 "/>
<polyline clip-path="url(#clip862)" style="stroke:#000000; stroke-linecap:round; stroke-linejoin:round; stroke-width:2; stroke-opacity:0.1; fill:none" points="1268.47,1486.45 1268.47,47.2441 "/>
<polyline clip-path="url(#clip862)" style="stroke:#000000; stroke-linecap:round; stroke-linejoin:round; stroke-width:2; stroke-opacity:0.1; fill:none" points="1677.64,1486.45 1677.64,47.2441 "/>
<polyline clip-path="url(#clip862)" style="stroke:#000000; stroke-linecap:round; stroke-linejoin:round; stroke-width:2; stroke-opacity:0.1; fill:none" points="2086.8,1486.45 2086.8,47.2441 "/>
<polyline clip-path="url(#clip860)" style="stroke:#000000; stroke-linecap:round; stroke-linejoin:round; stroke-width:4; stroke-opacity:1; fill:none" points="184.191,1486.45 2352.76,1486.45 "/>
<polyline clip-path="url(#clip860)" style="stroke:#000000; stroke-linecap:round; stroke-linejoin:round; stroke-width:4; stroke-opacity:1; fill:none" points="450.147,1486.45 450.147,1467.55 "/>
<polyline clip-path="url(#clip860)" style="stroke:#000000; stroke-linecap:round; stroke-linejoin:round; stroke-width:4; stroke-opacity:1; fill:none" points="859.31,1486.45 859.31,1467.55 "/>
<polyline clip-path="url(#clip860)" style="stroke:#000000; stroke-linecap:round; stroke-linejoin:round; stroke-width:4; stroke-opacity:1; fill:none" points="1268.47,1486.45 1268.47,1467.55 "/>
<polyline clip-path="url(#clip860)" style="stroke:#000000; stroke-linecap:round; stroke-linejoin:round; stroke-width:4; stroke-opacity:1; fill:none" points="1677.64,1486.45 1677.64,1467.55 "/>
<polyline clip-path="url(#clip860)" style="stroke:#000000; stroke-linecap:round; stroke-linejoin:round; stroke-width:4; stroke-opacity:1; fill:none" points="2086.8,1486.45 2086.8,1467.55 "/>
<path clip-path="url(#clip860)" d="M419.047 1532.02 L448.723 1532.02 L448.723 1535.95 L419.047 1535.95 L419.047 1532.02 Z" fill="#000000" fill-rule="evenodd" fill-opacity="1" /><path clip-path="url(#clip860)" d="M471.663 1518.36 L459.857 1536.81 L471.663 1536.81 L471.663 1518.36 M470.436 1514.29 L476.316 1514.29 L476.316 1536.81 L481.246 1536.81 L481.246 1540.7 L476.316 1540.7 L476.316 1548.85 L471.663 1548.85 L471.663 1540.7 L456.061 1540.7 L456.061 1536.19 L470.436 1514.29 Z" fill="#000000" fill-rule="evenodd" fill-opacity="1" /><path clip-path="url(#clip860)" d="M829.252 1532.02 L858.928 1532.02 L858.928 1535.95 L829.252 1535.95 L829.252 1532.02 Z" fill="#000000" fill-rule="evenodd" fill-opacity="1" /><path clip-path="url(#clip860)" d="M873.048 1544.91 L889.368 1544.91 L889.368 1548.85 L867.423 1548.85 L867.423 1544.91 Q870.085 1542.16 874.669 1537.53 Q879.275 1532.88 880.456 1531.53 Q882.701 1529.01 883.581 1527.27 Q884.484 1525.51 884.484 1523.82 Q884.484 1521.07 882.539 1519.33 Q880.618 1517.6 877.516 1517.6 Q875.317 1517.6 872.863 1518.36 Q870.433 1519.13 867.655 1520.68 L867.655 1515.95 Q870.479 1514.82 872.933 1514.24 Q875.386 1513.66 877.423 1513.66 Q882.794 1513.66 885.988 1516.35 Q889.183 1519.03 889.183 1523.52 Q889.183 1525.65 888.372 1527.57 Q887.585 1529.47 885.479 1532.07 Q884.9 1532.74 881.798 1535.95 Q878.697 1539.15 873.048 1544.91 Z" fill="#000000" fill-rule="evenodd" fill-opacity="1" /><path clip-path="url(#clip860)" d="M1268.47 1517.37 Q1264.86 1517.37 1263.03 1520.93 Q1261.23 1524.47 1261.23 1531.6 Q1261.23 1538.71 1263.03 1542.27 Q1264.86 1545.82 1268.47 1545.82 Q1272.11 1545.82 1273.91 1542.27 Q1275.74 1538.71 1275.74 1531.6 Q1275.74 1524.47 1273.91 1520.93 Q1272.11 1517.37 1268.47 1517.37 M1268.47 1513.66 Q1274.28 1513.66 1277.34 1518.27 Q1280.42 1522.85 1280.42 1531.6 Q1280.42 1540.33 1277.34 1544.94 Q1274.28 1549.52 1268.47 1549.52 Q1262.66 1549.52 1259.58 1544.94 Q1256.53 1540.33 1256.53 1531.6 Q1256.53 1522.85 1259.58 1518.27 Q1262.66 1513.66 1268.47 1513.66 Z" fill="#000000" fill-rule="evenodd" fill-opacity="1" /><path clip-path="url(#clip860)" d="M1672.29 1544.91 L1688.61 1544.91 L1688.61 1548.85 L1666.66 1548.85 L1666.66 1544.91 Q1669.33 1542.16 1673.91 1537.53 Q1678.52 1532.88 1679.7 1531.53 Q1681.94 1529.01 1682.82 1527.27 Q1683.72 1525.51 1683.72 1523.82 Q1683.72 1521.07 1681.78 1519.33 Q1679.86 1517.6 1676.76 1517.6 Q1674.56 1517.6 1672.1 1518.36 Q1669.67 1519.13 1666.9 1520.68 L1666.9 1515.95 Q1669.72 1514.82 1672.17 1514.24 Q1674.63 1513.66 1676.66 1513.66 Q1682.03 1513.66 1685.23 1516.35 Q1688.42 1519.03 1688.42 1523.52 Q1688.42 1525.65 1687.61 1527.57 Q1686.83 1529.47 1684.72 1532.07 Q1684.14 1532.74 1681.04 1535.95 Q1677.94 1539.15 1672.29 1544.91 Z" fill="#000000" fill-rule="evenodd" fill-opacity="1" /><path clip-path="url(#clip860)" d="M2089.81 1518.36 L2078 1536.81 L2089.81 1536.81 L2089.81 1518.36 M2088.58 1514.29 L2094.46 1514.29 L2094.46 1536.81 L2099.39 1536.81 L2099.39 1540.7 L2094.46 1540.7 L2094.46 1548.85 L2089.81 1548.85 L2089.81 1540.7 L2074.21 1540.7 L2074.21 1536.19 L2088.58 1514.29 Z" fill="#000000" fill-rule="evenodd" fill-opacity="1" /><polyline clip-path="url(#clip862)" style="stroke:#000000; stroke-linecap:round; stroke-linejoin:round; stroke-width:2; stroke-opacity:0.1; fill:none" points="184.191,1397.33 2352.76,1397.33 "/>
<polyline clip-path="url(#clip862)" style="stroke:#000000; stroke-linecap:round; stroke-linejoin:round; stroke-width:2; stroke-opacity:0.1; fill:none" points="184.191,1069.99 2352.76,1069.99 "/>
<polyline clip-path="url(#clip862)" style="stroke:#000000; stroke-linecap:round; stroke-linejoin:round; stroke-width:2; stroke-opacity:0.1; fill:none" points="184.191,742.652 2352.76,742.652 "/>
<polyline clip-path="url(#clip862)" style="stroke:#000000; stroke-linecap:round; stroke-linejoin:round; stroke-width:2; stroke-opacity:0.1; fill:none" points="184.191,415.314 2352.76,415.314 "/>
<polyline clip-path="url(#clip862)" style="stroke:#000000; stroke-linecap:round; stroke-linejoin:round; stroke-width:2; stroke-opacity:0.1; fill:none" points="184.191,87.9763 2352.76,87.9763 "/>
<polyline clip-path="url(#clip860)" style="stroke:#000000; stroke-linecap:round; stroke-linejoin:round; stroke-width:4; stroke-opacity:1; fill:none" points="184.191,1486.45 184.191,47.2441 "/>
<polyline clip-path="url(#clip860)" style="stroke:#000000; stroke-linecap:round; stroke-linejoin:round; stroke-width:4; stroke-opacity:1; fill:none" points="184.191,1397.33 203.088,1397.33 "/>
<polyline clip-path="url(#clip860)" style="stroke:#000000; stroke-linecap:round; stroke-linejoin:round; stroke-width:4; stroke-opacity:1; fill:none" points="184.191,1069.99 203.088,1069.99 "/>
<polyline clip-path="url(#clip860)" style="stroke:#000000; stroke-linecap:round; stroke-linejoin:round; stroke-width:4; stroke-opacity:1; fill:none" points="184.191,742.652 203.088,742.652 "/>
<polyline clip-path="url(#clip860)" style="stroke:#000000; stroke-linecap:round; stroke-linejoin:round; stroke-width:4; stroke-opacity:1; fill:none" points="184.191,415.314 203.088,415.314 "/>
<polyline clip-path="url(#clip860)" style="stroke:#000000; stroke-linecap:round; stroke-linejoin:round; stroke-width:4; stroke-opacity:1; fill:none" points="184.191,87.9763 203.088,87.9763 "/>
<path clip-path="url(#clip860)" d="M51.6634 1410.67 L59.3023 1410.67 L59.3023 1384.31 L50.9921 1385.97 L50.9921 1381.71 L59.256 1380.05 L63.9319 1380.05 L63.9319 1410.67 L71.5707 1410.67 L71.5707 1414.61 L51.6634 1414.61 L51.6634 1410.67 Z" fill="#000000" fill-rule="evenodd" fill-opacity="1" /><path clip-path="url(#clip860)" d="M81.8253 1410.67 L89.4641 1410.67 L89.4641 1384.31 L81.154 1385.97 L81.154 1381.71 L89.4178 1380.05 L94.0937 1380.05 L94.0937 1410.67 L101.733 1410.67 L101.733 1414.61 L81.8253 1414.61 L81.8253 1410.67 Z" fill="#000000" fill-rule="evenodd" fill-opacity="1" /><path clip-path="url(#clip860)" d="M111.177 1408.73 L116.061 1408.73 L116.061 1414.61 L111.177 1414.61 L111.177 1408.73 Z" fill="#000000" fill-rule="evenodd" fill-opacity="1" /><path clip-path="url(#clip860)" d="M136.246 1383.13 Q132.635 1383.13 130.807 1386.69 Q129.001 1390.23 129.001 1397.36 Q129.001 1404.47 130.807 1408.03 Q132.635 1411.58 136.246 1411.58 Q139.881 1411.58 141.686 1408.03 Q143.515 1404.47 143.515 1397.36 Q143.515 1390.23 141.686 1386.69 Q139.881 1383.13 136.246 1383.13 M136.246 1379.42 Q142.056 1379.42 145.112 1384.03 Q148.191 1388.61 148.191 1397.36 Q148.191 1406.09 145.112 1410.7 Q142.056 1415.28 136.246 1415.28 Q130.436 1415.28 127.357 1410.7 Q124.302 1406.09 124.302 1397.36 Q124.302 1388.61 127.357 1384.03 Q130.436 1379.42 136.246 1379.42 Z" fill="#000000" fill-rule="evenodd" fill-opacity="1" /><path clip-path="url(#clip860)" d="M52.6588 1083.33 L60.2976 1083.33 L60.2976 1056.97 L51.9875 1058.64 L51.9875 1054.38 L60.2513 1052.71 L64.9272 1052.71 L64.9272 1083.33 L72.5661 1083.33 L72.5661 1087.27 L52.6588 1087.27 L52.6588 1083.33 Z" fill="#000000" fill-rule="evenodd" fill-opacity="1" /><path clip-path="url(#clip860)" d="M82.8207 1083.33 L90.4595 1083.33 L90.4595 1056.97 L82.1494 1058.64 L82.1494 1054.38 L90.4132 1052.71 L95.0891 1052.71 L95.0891 1083.33 L102.728 1083.33 L102.728 1087.27 L82.8207 1087.27 L82.8207 1083.33 Z" fill="#000000" fill-rule="evenodd" fill-opacity="1" /><path clip-path="url(#clip860)" d="M112.172 1081.39 L117.057 1081.39 L117.057 1087.27 L112.172 1087.27 L112.172 1081.39 Z" fill="#000000" fill-rule="evenodd" fill-opacity="1" /><path clip-path="url(#clip860)" d="M127.288 1052.71 L145.644 1052.71 L145.644 1056.65 L131.57 1056.65 L131.57 1065.12 Q132.589 1064.77 133.607 1064.61 Q134.626 1064.42 135.644 1064.42 Q141.431 1064.42 144.811 1067.59 Q148.191 1070.77 148.191 1076.18 Q148.191 1081.76 144.718 1084.86 Q141.246 1087.94 134.927 1087.94 Q132.751 1087.94 130.482 1087.57 Q128.237 1087.2 125.83 1086.46 L125.83 1081.76 Q127.913 1082.89 130.135 1083.45 Q132.357 1084.01 134.834 1084.01 Q138.839 1084.01 141.177 1081.9 Q143.515 1079.79 143.515 1076.18 Q143.515 1072.57 141.177 1070.46 Q138.839 1068.36 134.834 1068.36 Q132.959 1068.36 131.084 1068.77 Q129.232 1069.19 127.288 1070.07 L127.288 1052.71 Z" fill="#000000" fill-rule="evenodd" fill-opacity="1" /><path clip-path="url(#clip860)" d="M51.6634 755.997 L59.3023 755.997 L59.3023 729.631 L50.9921 731.298 L50.9921 727.039 L59.256 725.372 L63.9319 725.372 L63.9319 755.997 L71.5707 755.997 L71.5707 759.932 L51.6634 759.932 L51.6634 755.997 Z" fill="#000000" fill-rule="evenodd" fill-opacity="1" /><path clip-path="url(#clip860)" d="M85.0429 755.997 L101.362 755.997 L101.362 759.932 L79.4179 759.932 L79.4179 755.997 Q82.0799 753.242 86.6632 748.613 Q91.2697 743.96 92.4502 742.617 Q94.6956 740.094 95.5752 738.358 Q96.478 736.599 96.478 734.909 Q96.478 732.154 94.5336 730.418 Q92.6123 728.682 89.5104 728.682 Q87.3114 728.682 84.8577 729.446 Q82.4271 730.21 79.6494 731.761 L79.6494 727.039 Q82.4734 725.904 84.9271 725.326 Q87.3808 724.747 89.4178 724.747 Q94.7882 724.747 97.9826 727.432 Q101.177 730.117 101.177 734.608 Q101.177 736.738 100.367 738.659 Q99.5798 740.557 97.4734 743.15 Q96.8947 743.821 93.7928 747.039 Q90.691 750.233 85.0429 755.997 Z" fill="#000000" fill-rule="evenodd" fill-opacity="1" /><path clip-path="url(#clip860)" d="M111.177 754.052 L116.061 754.052 L116.061 759.932 L111.177 759.932 L111.177 754.052 Z" fill="#000000" fill-rule="evenodd" fill-opacity="1" /><path clip-path="url(#clip860)" d="M136.246 728.451 Q132.635 728.451 130.807 732.015 Q129.001 735.557 129.001 742.687 Q129.001 749.793 130.807 753.358 Q132.635 756.9 136.246 756.9 Q139.881 756.9 141.686 753.358 Q143.515 749.793 143.515 742.687 Q143.515 735.557 141.686 732.015 Q139.881 728.451 136.246 728.451 M136.246 724.747 Q142.056 724.747 145.112 729.353 Q148.191 733.937 148.191 742.687 Q148.191 751.414 145.112 756.02 Q142.056 760.603 136.246 760.603 Q130.436 760.603 127.357 756.02 Q124.302 751.414 124.302 742.687 Q124.302 733.937 127.357 729.353 Q130.436 724.747 136.246 724.747 Z" fill="#000000" fill-rule="evenodd" fill-opacity="1" /><path clip-path="url(#clip860)" d="M52.6588 428.659 L60.2976 428.659 L60.2976 402.293 L51.9875 403.96 L51.9875 399.701 L60.2513 398.034 L64.9272 398.034 L64.9272 428.659 L72.5661 428.659 L72.5661 432.594 L52.6588 432.594 L52.6588 428.659 Z" fill="#000000" fill-rule="evenodd" fill-opacity="1" /><path clip-path="url(#clip860)" d="M86.0382 428.659 L102.358 428.659 L102.358 432.594 L80.4133 432.594 L80.4133 428.659 Q83.0753 425.904 87.6586 421.275 Q92.2651 416.622 93.4456 415.279 Q95.691 412.756 96.5706 411.02 Q97.4734 409.261 97.4734 407.571 Q97.4734 404.817 95.5289 403.08 Q93.6076 401.344 90.5058 401.344 Q88.3067 401.344 85.8531 402.108 Q83.4225 402.872 80.6447 404.423 L80.6447 399.701 Q83.4688 398.567 85.9225 397.988 Q88.3762 397.409 90.4132 397.409 Q95.7836 397.409 98.978 400.094 Q102.172 402.779 102.172 407.27 Q102.172 409.4 101.362 411.321 Q100.575 413.219 98.4687 415.812 Q97.89 416.483 94.7882 419.701 Q91.6864 422.895 86.0382 428.659 Z" fill="#000000" fill-rule="evenodd" fill-opacity="1" /><path clip-path="url(#clip860)" d="M112.172 426.715 L117.057 426.715 L117.057 432.594 L112.172 432.594 L112.172 426.715 Z" fill="#000000" fill-rule="evenodd" fill-opacity="1" /><path clip-path="url(#clip860)" d="M127.288 398.034 L145.644 398.034 L145.644 401.969 L131.57 401.969 L131.57 410.441 Q132.589 410.094 133.607 409.932 Q134.626 409.747 135.644 409.747 Q141.431 409.747 144.811 412.918 Q148.191 416.09 148.191 421.506 Q148.191 427.085 144.718 430.187 Q141.246 433.265 134.927 433.265 Q132.751 433.265 130.482 432.895 Q128.237 432.525 125.83 431.784 L125.83 427.085 Q127.913 428.219 130.135 428.775 Q132.357 429.33 134.834 429.33 Q138.839 429.33 141.177 427.224 Q143.515 425.117 143.515 421.506 Q143.515 417.895 141.177 415.789 Q138.839 413.682 134.834 413.682 Q132.959 413.682 131.084 414.099 Q129.232 414.516 127.288 415.395 L127.288 398.034 Z" fill="#000000" fill-rule="evenodd" fill-opacity="1" /><path clip-path="url(#clip860)" d="M51.6634 101.321 L59.3023 101.321 L59.3023 74.9555 L50.9921 76.6222 L50.9921 72.3629 L59.256 70.6963 L63.9319 70.6963 L63.9319 101.321 L71.5707 101.321 L71.5707 105.256 L51.6634 105.256 L51.6634 101.321 Z" fill="#000000" fill-rule="evenodd" fill-opacity="1" /><path clip-path="url(#clip860)" d="M95.1817 86.6221 Q98.5382 87.3397 100.413 89.6082 Q102.311 91.8767 102.311 95.21 Q102.311 100.326 98.7928 103.127 Q95.2743 105.928 88.7928 105.928 Q86.6169 105.928 84.3021 105.488 Q82.0105 105.071 79.5568 104.215 L79.5568 99.7008 Q81.5012 100.835 83.816 101.414 Q86.1308 101.992 88.654 101.992 Q93.0521 101.992 95.3437 100.256 Q97.6585 98.5202 97.6585 95.21 Q97.6585 92.1545 95.5058 90.4415 Q93.3762 88.7054 89.5567 88.7054 L85.529 88.7054 L85.529 84.8629 L89.7419 84.8629 Q93.191 84.8629 95.0197 83.4971 Q96.8484 82.1083 96.8484 79.5157 Q96.8484 76.8537 94.9502 75.4416 Q93.0752 74.0064 89.5567 74.0064 Q87.6354 74.0064 85.4364 74.4231 Q83.2373 74.8398 80.5984 75.7194 L80.5984 71.5528 Q83.2605 70.812 85.5753 70.4416 Q87.9132 70.0713 89.9734 70.0713 Q95.2974 70.0713 98.3993 72.5018 Q101.501 74.9092 101.501 79.0296 Q101.501 81.8999 99.8576 83.8907 Q98.2141 85.8582 95.1817 86.6221 Z" fill="#000000" fill-rule="evenodd" fill-opacity="1" /><path clip-path="url(#clip860)" d="M111.177 99.3767 L116.061 99.3767 L116.061 105.256 L111.177 105.256 L111.177 99.3767 Z" fill="#000000" fill-rule="evenodd" fill-opacity="1" /><path clip-path="url(#clip860)" d="M136.246 73.775 Q132.635 73.775 130.807 77.3398 Q129.001 80.8814 129.001 88.011 Q129.001 95.1174 130.807 98.6822 Q132.635 102.224 136.246 102.224 Q139.881 102.224 141.686 98.6822 Q143.515 95.1174 143.515 88.011 Q143.515 80.8814 141.686 77.3398 Q139.881 73.775 136.246 73.775 M136.246 70.0713 Q142.056 70.0713 145.112 74.6777 Q148.191 79.261 148.191 88.011 Q148.191 96.7378 145.112 101.344 Q142.056 105.928 136.246 105.928 Q130.436 105.928 127.357 101.344 Q124.302 96.7378 124.302 88.011 Q124.302 79.261 127.357 74.6777 Q130.436 70.0713 136.246 70.0713 Z" fill="#000000" fill-rule="evenodd" fill-opacity="1" /><polyline clip-path="url(#clip862)" style="stroke:#009af9; stroke-linecap:round; stroke-linejoin:round; stroke-width:8; stroke-opacity:1; fill:none" points="245.565,556.945 266.023,620.547 286.481,685.369 306.94,750.763 327.398,816.076 347.856,880.655 368.314,943.855 388.772,1005.05 409.23,1063.61 429.689,1118.98 450.147,1170.58 470.605,1217.9 491.063,1260.48 511.521,1297.88 531.979,1329.74 552.438,1355.73 572.896,1375.59 593.354,1389.13 613.812,1396.21 634.27,1396.76 654.728,1390.78 675.187,1378.31 695.645,1359.5 716.103,1334.53 736.561,1303.64 757.019,1267.14 777.477,1225.41 797.936,1178.85 818.394,1127.93 838.852,1073.16 859.31,1015.09 879.768,954.302 900.226,891.396 920.685,827.003 941.143,761.768 961.601,696.342 982.059,631.379 1002.52,567.527 1022.98,505.425 1043.43,445.694 1063.89,388.929 1084.35,335.699 1104.81,286.535 1125.27,241.928 1145.72,202.325 1166.18,168.12 1186.64,139.656 1207.1,117.216 1227.56,101.026 1248.02,91.2469 1268.47,87.9763 1288.93,91.2469 1309.39,101.026 1329.85,117.216 1350.31,139.656 1370.76,168.12 1391.22,202.325 1411.68,241.928 1432.14,286.535 1452.6,335.699 1473.05,388.929 1493.51,445.694 1513.97,505.425 1534.43,567.527 1554.89,631.379 1575.35,696.342 1595.8,761.768 1616.26,827.003 1636.72,891.396 1657.18,954.302 1677.64,1015.09 1698.09,1073.16 1718.55,1127.93 1739.01,1178.85 1759.47,1225.41 1779.93,1267.14 1800.39,1303.64 1820.84,1334.53 1841.3,1359.5 1861.76,1378.31 1882.22,1390.78 1902.68,1396.76 1923.13,1396.21 1943.59,1389.13 1964.05,1375.59 1984.51,1355.73 2004.97,1329.74 2025.43,1297.88 2045.88,1260.48 2066.34,1217.9 2086.8,1170.58 2107.26,1118.98 2127.72,1063.61 2148.17,1005.05 2168.63,943.855 2189.09,880.655 2209.55,816.076 2230.01,750.763 2250.47,685.369 2270.92,620.547 2291.38,556.945 "/>
<polyline clip-path="url(#clip862)" style="stroke:#00ff00; stroke-linecap:round; stroke-linejoin:round; stroke-width:8; stroke-opacity:1; fill:none" points="245.565,356.453 266.023,501.567 286.481,634.408 306.94,755.363 327.398,864.817 347.856,963.158 368.314,1050.77 388.772,1128.04 409.23,1195.36 429.689,1253.11 450.147,1301.67 470.605,1341.44 491.063,1372.8 511.521,1396.14 531.979,1411.83 552.438,1420.28 572.896,1421.86 593.354,1416.96 613.812,1405.97 634.27,1389.27 654.728,1367.25 675.187,1340.29 695.645,1308.79 716.103,1273.13 736.561,1233.69 757.019,1190.86 777.477,1145.03 797.936,1096.59 818.394,1045.91 838.852,993.386 859.31,939.406 879.768,884.353 900.226,828.615 920.685,772.578 941.143,716.627 961.601,661.15 982.059,606.531 1002.52,553.158 1022.98,501.417 1043.43,451.694 1063.89,404.375 1084.35,359.846 1104.81,318.494 1125.27,280.705 1145.72,246.865 1166.18,217.36 1186.64,192.577 1207.1,172.901 1227.56,158.72 1248.02,150.419 1268.47,148.384 1288.93,152.872 1309.39,163.617 1329.85,180.224 1350.31,202.297 1370.76,229.442 1391.22,261.264 1411.68,297.365 1432.14,337.353 1452.6,380.83 1473.05,427.402 1493.51,476.674 1513.97,528.249 1534.43,581.734 1554.89,636.732 1575.35,692.848 1595.8,749.687 1616.26,806.853 1636.72,863.952 1657.18,920.587 1677.64,976.364 1698.09,1030.89 1718.55,1083.76 1739.01,1134.59 1759.47,1182.98 1779.93,1228.53 1800.39,1270.86 1820.84,1309.56 1841.3,1344.23 1861.76,1374.49 1882.22,1399.94 1902.68,1420.19 1923.13,1434.83 1943.59,1443.47 1964.05,1445.72 1984.51,1441.18 2004.97,1429.45 2025.43,1410.15 2045.88,1382.87 2066.34,1347.23 2086.8,1302.82 2107.26,1249.24 2127.72,1186.12 2148.17,1113.04 2168.63,1029.61 2189.09,935.449 2209.55,830.146 2230.01,713.31 2250.47,584.547 2270.92,443.462 2291.38,289.657 "/>
<circle clip-path="url(#clip862)" cx="1270.52" cy="148.54" r="14.4" fill="#ff0000" fill-rule="evenodd" fill-opacity="1" stroke="#000000" stroke-opacity="1" stroke-width="3.2"/>
<circle clip-path="url(#clip862)" cx="1730.01" cy="1112.5" r="14.4" fill="#ff0000" fill-rule="evenodd" fill-opacity="1" stroke="#000000" stroke-opacity="1" stroke-width="3.2"/>
<path clip-path="url(#clip860)" d="M256.476 302.578 L526.342 302.578 L526.342 95.2176 L256.476 95.2176  Z" fill="#ffffff" fill-rule="evenodd" fill-opacity="1"/>
<polyline clip-path="url(#clip860)" style="stroke:#000000; stroke-linecap:round; stroke-linejoin:round; stroke-width:4; stroke-opacity:1; fill:none" points="256.476,302.578 526.342,302.578 526.342,95.2176 256.476,95.2176 256.476,302.578 "/>
<polyline clip-path="url(#clip860)" style="stroke:#009af9; stroke-linecap:round; stroke-linejoin:round; stroke-width:8; stroke-opacity:1; fill:none" points="280.571,147.058 425.142,147.058 "/>
<path clip-path="url(#clip860)" d="M463.08 166.745 Q461.275 171.375 459.562 172.787 Q457.849 174.199 454.978 174.199 L451.575 174.199 L451.575 170.634 L454.075 170.634 Q455.835 170.634 456.807 169.8 Q457.779 168.967 458.96 165.865 L459.724 163.921 L449.238 138.412 L453.751 138.412 L461.853 158.689 L469.955 138.412 L474.469 138.412 L463.08 166.745 Z" fill="#000000" fill-rule="evenodd" fill-opacity="1" /><path clip-path="url(#clip860)" d="M481.761 160.402 L489.399 160.402 L489.399 134.037 L481.089 135.703 L481.089 131.444 L489.353 129.778 L494.029 129.778 L494.029 160.402 L501.668 160.402 L501.668 164.338 L481.761 164.338 L481.761 160.402 Z" fill="#000000" fill-rule="evenodd" fill-opacity="1" /><polyline clip-path="url(#clip860)" style="stroke:#00ff00; stroke-linecap:round; stroke-linejoin:round; stroke-width:8; stroke-opacity:1; fill:none" points="280.571,198.898 425.142,198.898 "/>
<path clip-path="url(#clip860)" d="M463.08 218.585 Q461.275 223.215 459.562 224.627 Q457.849 226.039 454.978 226.039 L451.575 226.039 L451.575 222.474 L454.075 222.474 Q455.835 222.474 456.807 221.64 Q457.779 220.807 458.96 217.705 L459.724 215.761 L449.238 190.252 L453.751 190.252 L461.853 210.529 L469.955 190.252 L474.469 190.252 L463.08 218.585 Z" fill="#000000" fill-rule="evenodd" fill-opacity="1" /><path clip-path="url(#clip860)" d="M484.978 212.242 L501.297 212.242 L501.297 216.178 L479.353 216.178 L479.353 212.242 Q482.015 209.488 486.598 204.858 Q491.205 200.205 492.385 198.863 Q494.631 196.34 495.51 194.604 Q496.413 192.844 496.413 191.155 Q496.413 188.4 494.469 186.664 Q492.547 184.928 489.446 184.928 Q487.247 184.928 484.793 185.692 Q482.362 186.455 479.585 188.006 L479.585 183.284 Q482.409 182.15 484.862 181.571 Q487.316 180.993 489.353 180.993 Q494.723 180.993 497.918 183.678 Q501.112 186.363 501.112 190.854 Q501.112 192.983 500.302 194.905 Q499.515 196.803 497.409 199.395 Q496.83 200.067 493.728 203.284 Q490.626 206.479 484.978 212.242 Z" fill="#000000" fill-rule="evenodd" fill-opacity="1" /><circle clip-path="url(#clip860)" cx="352.857" cy="250.738" r="23.04" fill="#ff0000" fill-rule="evenodd" fill-opacity="1" stroke="#000000" stroke-opacity="1" stroke-width="5.12"/>
<path clip-path="url(#clip860)" d="M463.08 270.425 Q461.275 275.055 459.562 276.467 Q457.849 277.879 454.978 277.879 L451.575 277.879 L451.575 274.314 L454.075 274.314 Q455.835 274.314 456.807 273.48 Q457.779 272.647 458.96 269.545 L459.724 267.601 L449.238 242.092 L453.751 242.092 L461.853 262.369 L469.955 242.092 L474.469 242.092 L463.08 270.425 Z" fill="#000000" fill-rule="evenodd" fill-opacity="1" /><path clip-path="url(#clip860)" d="M495.117 249.383 Q498.473 250.101 500.348 252.369 Q502.247 254.638 502.247 257.971 Q502.247 263.087 498.728 265.888 Q495.21 268.689 488.728 268.689 Q486.552 268.689 484.237 268.249 Q481.946 267.832 479.492 266.976 L479.492 262.462 Q481.436 263.596 483.751 264.175 Q486.066 264.754 488.589 264.754 Q492.987 264.754 495.279 263.018 Q497.594 261.281 497.594 257.971 Q497.594 254.916 495.441 253.203 Q493.311 251.467 489.492 251.467 L485.464 251.467 L485.464 247.624 L489.677 247.624 Q493.126 247.624 494.955 246.258 Q496.784 244.87 496.784 242.277 Q496.784 239.615 494.885 238.203 Q493.01 236.768 489.492 236.768 Q487.571 236.768 485.372 237.184 Q483.173 237.601 480.534 238.481 L480.534 234.314 Q483.196 233.573 485.51 233.203 Q487.848 232.833 489.909 232.833 Q495.233 232.833 498.334 235.263 Q501.436 237.67 501.436 241.791 Q501.436 244.661 499.793 246.652 Q498.149 248.62 495.117 249.383 Z" fill="#000000" fill-rule="evenodd" fill-opacity="1" /></svg>
