<?xml version="1.0" encoding="utf-8"?>
<svg xmlns="http://www.w3.org/2000/svg" xmlns:xlink="http://www.w3.org/1999/xlink" width="600" height="400" viewBox="0 0 2400 1600">
<defs>
  <clipPath id="clip780">
    <rect x="0" y="0" width="2400" height="1600"/>
  </clipPath>
</defs>
<path clip-path="url(#clip780)" d="M0 1600 L2400 1600 L2400 0 L0 0  Z" fill="#ffffff" fill-rule="evenodd" fill-opacity="1"/>
<defs>
  <clipPath id="clip781">
    <rect x="480" y="0" width="1681" height="1600"/>
  </clipPath>
</defs>
<path clip-path="url(#clip780)" d="M186.274 1486.45 L2352.76 1486.45 L2352.76 47.2441 L186.274 47.2441  Z" fill="#ffffff" fill-rule="evenodd" fill-opacity="1"/>
<defs>
  <clipPath id="clip782">
    <rect x="186" y="47" width="2167" height="1440"/>
  </clipPath>
</defs>
<polyline clip-path="url(#clip782)" style="stroke:#000000; stroke-linecap:round; stroke-linejoin:round; stroke-width:2; stroke-opacity:0.1; fill:none" points="186.274,1486.45 186.274,47.2441 "/>
<polyline clip-path="url(#clip782)" style="stroke:#000000; stroke-linecap:round; stroke-linejoin:round; stroke-width:2; stroke-opacity:0.1; fill:none" points="727.894,1486.45 727.894,47.2441 "/>
<polyline clip-path="url(#clip782)" style="stroke:#000000; stroke-linecap:round; stroke-linejoin:round; stroke-width:2; stroke-opacity:0.1; fill:none" points="1269.51,1486.45 1269.51,47.2441 "/>
<polyline clip-path="url(#clip782)" style="stroke:#000000; stroke-linecap:round; stroke-linejoin:round; stroke-width:2; stroke-opacity:0.1; fill:none" points="1811.14,1486.45 1811.14,47.2441 "/>
<polyline clip-path="url(#clip782)" style="stroke:#000000; stroke-linecap:round; stroke-linejoin:round; stroke-width:2; stroke-opacity:0.1; fill:none" points="2352.76,1486.45 2352.76,47.2441 "/>
<polyline clip-path="url(#clip780)" style="stroke:#000000; stroke-linecap:round; stroke-linejoin:round; stroke-width:4; stroke-opacity:1; fill:none" points="186.274,1486.45 2352.76,1486.45 "/>
<polyline clip-path="url(#clip780)" style="stroke:#000000; stroke-linecap:round; stroke-linejoin:round; stroke-width:4; stroke-opacity:1; fill:none" points="186.274,1486.45 186.274,1467.55 "/>
<polyline clip-path="url(#clip780)" style="stroke:#000000; stroke-linecap:round; stroke-linejoin:round; stroke-width:4; stroke-opacity:1; fill:none" points="727.894,1486.45 727.894,1467.55 "/>
<polyline clip-path="url(#clip780)" style="stroke:#000000; stroke-linecap:round; stroke-linejoin:round; stroke-width:4; stroke-opacity:1; fill:none" points="1269.51,1486.45 1269.51,1467.55 "/>
<polyline clip-path="url(#clip780)" style="stroke:#000000; stroke-linecap:round; stroke-linejoin:round; stroke-width:4; stroke-opacity:1; fill:none" points="1811.14,1486.45 1811.14,1467.55 "/>
<polyline clip-path="url(#clip780)" style="stroke:#000000; stroke-linecap:round; stroke-linejoin:round; stroke-width:4; stroke-opacity:1; fill:none" points="2352.76,1486.45 2352.76,1467.55 "/>
<path clip-path="url(#clip780)" d="M132.802 1532.02 L162.478 1532.02 L162.478 1535.95 L132.802 1535.95 L132.802 1532.02 Z" fill="#000000" fill-rule="evenodd" fill-opacity="1" /><path clip-path="url(#clip780)" d="M172.617 1514.29 L190.973 1514.29 L190.973 1518.22 L176.899 1518.22 L176.899 1526.7 Q177.918 1526.35 178.936 1526.19 Q179.955 1526 180.973 1526 Q186.76 1526 190.14 1529.17 Q193.519 1532.34 193.519 1537.76 Q193.519 1543.34 190.047 1546.44 Q186.575 1549.52 180.256 1549.52 Q178.08 1549.52 175.811 1549.15 Q173.566 1548.78 171.158 1548.04 L171.158 1543.34 Q173.242 1544.47 175.464 1545.03 Q177.686 1545.58 180.163 1545.58 Q184.168 1545.58 186.505 1543.48 Q188.843 1541.37 188.843 1537.76 Q188.843 1534.15 186.505 1532.04 Q184.168 1529.94 180.163 1529.94 Q178.288 1529.94 176.413 1530.35 Q174.561 1530.77 172.617 1531.65 L172.617 1514.29 Z" fill="#000000" fill-rule="evenodd" fill-opacity="1" /><path clip-path="url(#clip780)" d="M202.732 1542.97 L207.616 1542.97 L207.616 1548.85 L202.732 1548.85 L202.732 1542.97 Z" fill="#000000" fill-rule="evenodd" fill-opacity="1" /><path clip-path="url(#clip780)" d="M227.802 1517.37 Q224.19 1517.37 222.362 1520.93 Q220.556 1524.47 220.556 1531.6 Q220.556 1538.71 222.362 1542.27 Q224.19 1545.82 227.802 1545.82 Q231.436 1545.82 233.241 1542.27 Q235.07 1538.71 235.07 1531.6 Q235.07 1524.47 233.241 1520.93 Q231.436 1517.37 227.802 1517.37 M227.802 1513.66 Q233.612 1513.66 236.667 1518.27 Q239.746 1522.85 239.746 1531.6 Q239.746 1540.33 236.667 1544.94 Q233.612 1549.52 227.802 1549.52 Q221.991 1549.52 218.913 1544.94 Q215.857 1540.33 215.857 1531.6 Q215.857 1522.85 218.913 1518.27 Q221.991 1513.66 227.802 1513.66 Z" fill="#000000" fill-rule="evenodd" fill-opacity="1" /><path clip-path="url(#clip780)" d="M674.92 1532.02 L704.596 1532.02 L704.596 1535.95 L674.92 1535.95 L674.92 1532.02 Z" fill="#000000" fill-rule="evenodd" fill-opacity="1" /><path clip-path="url(#clip780)" d="M718.716 1544.91 L735.036 1544.91 L735.036 1548.85 L713.091 1548.85 L713.091 1544.91 Q715.753 1542.16 720.337 1537.53 Q724.943 1532.88 726.124 1531.53 Q728.369 1529.01 729.249 1527.27 Q730.151 1525.51 730.151 1523.82 Q730.151 1521.07 728.207 1519.33 Q726.286 1517.6 723.184 1517.6 Q720.985 1517.6 718.531 1518.36 Q716.101 1519.13 713.323 1520.68 L713.323 1515.95 Q716.147 1514.82 718.601 1514.24 Q721.054 1513.66 723.091 1513.66 Q728.462 1513.66 731.656 1516.35 Q734.85 1519.03 734.85 1523.52 Q734.85 1525.65 734.04 1527.57 Q733.253 1529.47 731.147 1532.07 Q730.568 1532.74 727.466 1535.95 Q724.364 1539.15 718.716 1544.91 Z" fill="#000000" fill-rule="evenodd" fill-opacity="1" /><path clip-path="url(#clip780)" d="M744.85 1542.97 L749.735 1542.97 L749.735 1548.85 L744.85 1548.85 L744.85 1542.97 Z" fill="#000000" fill-rule="evenodd" fill-opacity="1" /><path clip-path="url(#clip780)" d="M759.966 1514.29 L778.322 1514.29 L778.322 1518.22 L764.248 1518.22 L764.248 1526.7 Q765.267 1526.35 766.285 1526.19 Q767.304 1526 768.323 1526 Q774.11 1526 777.489 1529.17 Q780.869 1532.34 780.869 1537.76 Q780.869 1543.34 777.397 1546.44 Q773.924 1549.52 767.605 1549.52 Q765.429 1549.52 763.16 1549.15 Q760.915 1548.78 758.508 1548.04 L758.508 1543.34 Q760.591 1544.47 762.813 1545.03 Q765.035 1545.58 767.512 1545.58 Q771.517 1545.58 773.855 1543.48 Q776.193 1541.37 776.193 1537.76 Q776.193 1534.15 773.855 1532.04 Q771.517 1529.94 767.512 1529.94 Q765.637 1529.94 763.762 1530.35 Q761.91 1530.77 759.966 1531.65 L759.966 1514.29 Z" fill="#000000" fill-rule="evenodd" fill-opacity="1" /><path clip-path="url(#clip780)" d="M1246.9 1517.37 Q1243.29 1517.37 1241.46 1520.93 Q1239.65 1524.47 1239.65 1531.6 Q1239.65 1538.71 1241.46 1542.27 Q1243.29 1545.82 1246.9 1545.82 Q1250.53 1545.82 1252.34 1542.27 Q1254.17 1538.71 1254.17 1531.6 Q1254.17 1524.47 1252.34 1520.93 Q1250.53 1517.37 1246.9 1517.37 M1246.9 1513.66 Q1252.71 1513.66 1255.77 1518.27 Q1258.84 1522.85 1258.84 1531.6 Q1258.84 1540.33 1255.77 1544.94 Q1252.71 1549.52 1246.9 1549.52 Q1241.09 1549.52 1238.01 1544.94 Q1234.95 1540.33 1234.95 1531.6 Q1234.95 1522.85 1238.01 1518.27 Q1241.09 1513.66 1246.9 1513.66 Z" fill="#000000" fill-rule="evenodd" fill-opacity="1" /><path clip-path="url(#clip780)" d="M1267.06 1542.97 L1271.95 1542.97 L1271.95 1548.85 L1267.06 1548.85 L1267.06 1542.97 Z" fill="#000000" fill-rule="evenodd" fill-opacity="1" /><path clip-path="url(#clip780)" d="M1292.13 1517.37 Q1288.52 1517.37 1286.69 1520.93 Q1284.89 1524.47 1284.89 1531.6 Q1284.89 1538.71 1286.69 1542.27 Q1288.52 1545.82 1292.13 1545.82 Q1295.76 1545.82 1297.57 1542.27 Q1299.4 1538.71 1299.4 1531.6 Q1299.4 1524.47 1297.57 1520.93 Q1295.76 1517.37 1292.13 1517.37 M1292.13 1513.66 Q1297.94 1513.66 1301 1518.27 Q1304.07 1522.85 1304.07 1531.6 Q1304.07 1540.33 1301 1544.94 Q1297.94 1549.52 1292.13 1549.52 Q1286.32 1549.52 1283.24 1544.94 Q1280.19 1540.33 1280.19 1531.6 Q1280.19 1522.85 1283.24 1518.27 Q1286.32 1513.66 1292.13 1513.66 Z" fill="#000000" fill-rule="evenodd" fill-opacity="1" /><path clip-path="url(#clip780)" d="M1782.87 1544.91 L1799.19 1544.91 L1799.19 1548.85 L1777.25 1548.85 L1777.25 1544.91 Q1779.91 1542.16 1784.49 1537.53 Q1789.1 1532.88 1790.28 1531.53 Q1792.52 1529.01 1793.4 1527.27 Q1794.31 1525.51 1794.31 1523.82 Q1794.31 1521.07 1792.36 1519.33 Q1790.44 1517.6 1787.34 1517.6 Q1785.14 1517.6 1782.69 1518.36 Q1780.26 1519.13 1777.48 1520.68 L1777.48 1515.95 Q1780.3 1514.82 1782.76 1514.24 Q1785.21 1513.66 1787.25 1513.66 Q1792.62 1513.66 1795.81 1516.35 Q1799.01 1519.03 1799.01 1523.52 Q1799.01 1525.65 1798.2 1527.57 Q1797.41 1529.47 1795.3 1532.07 Q1794.72 1532.74 1791.62 1535.95 Q1788.52 1539.15 1782.87 1544.91 Z" fill="#000000" fill-rule="evenodd" fill-opacity="1" /><path clip-path="url(#clip780)" d="M1809.01 1542.97 L1813.89 1542.97 L1813.89 1548.85 L1809.01 1548.85 L1809.01 1542.97 Z" fill="#000000" fill-rule="evenodd" fill-opacity="1" /><path clip-path="url(#clip780)" d="M1824.12 1514.29 L1842.48 1514.29 L1842.48 1518.22 L1828.4 1518.22 L1828.4 1526.7 Q1829.42 1526.35 1830.44 1526.19 Q1831.46 1526 1832.48 1526 Q1838.26 1526 1841.64 1529.17 Q1845.02 1532.34 1845.02 1537.76 Q1845.02 1543.34 1841.55 1546.44 Q1838.08 1549.52 1831.76 1549.52 Q1829.58 1549.52 1827.32 1549.15 Q1825.07 1548.78 1822.66 1548.04 L1822.66 1543.34 Q1824.75 1544.47 1826.97 1545.03 Q1829.19 1545.58 1831.67 1545.58 Q1835.67 1545.58 1838.01 1543.48 Q1840.35 1541.37 1840.35 1537.76 Q1840.35 1534.15 1838.01 1532.04 Q1835.67 1529.94 1831.67 1529.94 Q1829.79 1529.94 1827.92 1530.35 Q1826.07 1530.77 1824.12 1531.65 L1824.12 1514.29 Z" fill="#000000" fill-rule="evenodd" fill-opacity="1" /><path clip-path="url(#clip780)" d="M2319.92 1514.29 L2338.28 1514.29 L2338.28 1518.22 L2324.2 1518.22 L2324.2 1526.7 Q2325.22 1526.35 2326.24 1526.19 Q2327.26 1526 2328.28 1526 Q2334.06 1526 2337.44 1529.17 Q2340.82 1532.34 2340.82 1537.76 Q2340.82 1543.34 2337.35 1546.44 Q2333.88 1549.52 2327.56 1549.52 Q2325.38 1549.52 2323.11 1549.15 Q2320.87 1548.78 2318.46 1548.04 L2318.46 1543.34 Q2320.55 1544.47 2322.77 1545.03 Q2324.99 1545.58 2327.47 1545.58 Q2331.47 1545.58 2333.81 1543.48 Q2336.15 1541.37 2336.15 1537.76 Q2336.15 1534.15 2333.81 1532.04 Q2331.47 1529.94 2327.47 1529.94 Q2325.59 1529.94 2323.72 1530.35 Q2321.86 1530.77 2319.92 1531.65 L2319.92 1514.29 Z" fill="#000000" fill-rule="evenodd" fill-opacity="1" /><path clip-path="url(#clip780)" d="M2350.04 1542.97 L2354.92 1542.97 L2354.92 1548.85 L2350.04 1548.85 L2350.04 1542.97 Z" fill="#000000" fill-rule="evenodd" fill-opacity="1" /><path clip-path="url(#clip780)" d="M2375.11 1517.37 Q2371.49 1517.37 2369.67 1520.93 Q2367.86 1524.47 2367.86 1531.6 Q2367.86 1538.71 2369.67 1542.27 Q2371.49 1545.82 2375.11 1545.82 Q2378.74 1545.82 2380.55 1542.27 Q2382.37 1538.71 2382.37 1531.6 Q2382.37 1524.47 2380.55 1520.93 Q2378.74 1517.37 2375.11 1517.37 M2375.11 1513.66 Q2380.92 1513.66 2383.97 1518.27 Q2387.05 1522.85 2387.05 1531.6 Q2387.05 1540.33 2383.97 1544.94 Q2380.92 1549.52 2375.11 1549.52 Q2369.3 1549.52 2366.22 1544.94 Q2363.16 1540.33 2363.16 1531.6 Q2363.16 1522.85 2366.22 1518.27 Q2369.3 1513.66 2375.11 1513.66 Z" fill="#000000" fill-rule="evenodd" fill-opacity="1" /><polyline clip-path="url(#clip782)" style="stroke:#000000; stroke-linecap:round; stroke-linejoin:round; stroke-width:2; stroke-opacity:0.1; fill:none" points="186.274,1445.72 2352.76,1445.72 "/>
<polyline clip-path="url(#clip782)" style="stroke:#000000; stroke-linecap:round; stroke-linejoin:round; stroke-width:2; stroke-opacity:0.1; fill:none" points="186.274,1106.28 2352.76,1106.28 "/>
<polyline clip-path="url(#clip782)" style="stroke:#000000; stroke-linecap:round; stroke-linejoin:round; stroke-width:2; stroke-opacity:0.1; fill:none" points="186.274,766.846 2352.76,766.846 "/>
<polyline clip-path="url(#clip782)" style="stroke:#000000; stroke-linecap:round; stroke-linejoin:round; stroke-width:2; stroke-opacity:0.1; fill:none" points="186.274,427.411 2352.76,427.411 "/>
<polyline clip-path="url(#clip782)" style="stroke:#000000; stroke-linecap:round; stroke-linejoin:round; stroke-width:2; stroke-opacity:0.1; fill:none" points="186.274,87.9763 2352.76,87.9763 "/>
<polyline clip-path="url(#clip780)" style="stroke:#000000; stroke-linecap:round; stroke-linejoin:round; stroke-width:4; stroke-opacity:1; fill:none" points="186.274,1486.45 186.274,47.2441 "/>
<polyline clip-path="url(#clip780)" style="stroke:#000000; stroke-linecap:round; stroke-linejoin:round; stroke-width:4; stroke-opacity:1; fill:none" points="186.274,1445.72 205.172,1445.72 "/>
<polyline clip-path="url(#clip780)" style="stroke:#000000; stroke-linecap:round; stroke-linejoin:round; stroke-width:4; stroke-opacity:1; fill:none" points="186.274,1106.28 205.172,1106.28 "/>
<polyline clip-path="url(#clip780)" style="stroke:#000000; stroke-linecap:round; stroke-linejoin:round; stroke-width:4; stroke-opacity:1; fill:none" points="186.274,766.846 205.172,766.846 "/>
<polyline clip-path="url(#clip780)" style="stroke:#000000; stroke-linecap:round; stroke-linejoin:round; stroke-width:4; stroke-opacity:1; fill:none" points="186.274,427.411 205.172,427.411 "/>
<polyline clip-path="url(#clip780)" style="stroke:#000000; stroke-linecap:round; stroke-linejoin:round; stroke-width:4; stroke-opacity:1; fill:none" points="186.274,87.9763 205.172,87.9763 "/>
<path clip-path="url(#clip780)" d="M62.9365 1431.51 Q59.3254 1431.51 57.4967 1435.08 Q55.6912 1438.62 55.6912 1445.75 Q55.6912 1452.86 57.4967 1456.42 Q59.3254 1459.96 62.9365 1459.96 Q66.5707 1459.96 68.3763 1456.42 Q70.205 1452.86 70.205 1445.75 Q70.205 1438.62 68.3763 1435.08 Q66.5707 1431.51 62.9365 1431.51 M62.9365 1427.81 Q68.7467 1427.81 71.8022 1432.42 Q74.8809 1437 74.8809 1445.75 Q74.8809 1454.48 71.8022 1459.08 Q68.7467 1463.67 62.9365 1463.67 Q57.1264 1463.67 54.0477 1459.08 Q50.9921 1454.48 50.9921 1445.75 Q50.9921 1437 54.0477 1432.42 Q57.1264 1427.81 62.9365 1427.81 Z" fill="#000000" fill-rule="evenodd" fill-opacity="1" /><path clip-path="url(#clip780)" d="M83.0984 1457.12 L87.9827 1457.12 L87.9827 1463 L83.0984 1463 L83.0984 1457.12 Z" fill="#000000" fill-rule="evenodd" fill-opacity="1" /><path clip-path="url(#clip780)" d="M108.168 1431.51 Q104.557 1431.51 102.728 1435.08 Q100.922 1438.62 100.922 1445.75 Q100.922 1452.86 102.728 1456.42 Q104.557 1459.96 108.168 1459.96 Q111.802 1459.96 113.608 1456.42 Q115.436 1452.86 115.436 1445.75 Q115.436 1438.62 113.608 1435.08 Q111.802 1431.51 108.168 1431.51 M108.168 1427.81 Q113.978 1427.81 117.033 1432.42 Q120.112 1437 120.112 1445.75 Q120.112 1454.48 117.033 1459.08 Q113.978 1463.67 108.168 1463.67 Q102.358 1463.67 99.2789 1459.08 Q96.2234 1454.48 96.2234 1445.75 Q96.2234 1437 99.2789 1432.42 Q102.358 1427.81 108.168 1427.81 Z" fill="#000000" fill-rule="evenodd" fill-opacity="1" /><path clip-path="url(#clip780)" d="M138.33 1431.51 Q134.719 1431.51 132.89 1435.08 Q131.084 1438.62 131.084 1445.75 Q131.084 1452.86 132.89 1456.42 Q134.719 1459.96 138.33 1459.96 Q141.964 1459.96 143.769 1456.42 Q145.598 1452.86 145.598 1445.75 Q145.598 1438.62 143.769 1435.08 Q141.964 1431.51 138.33 1431.51 M138.33 1427.81 Q144.14 1427.81 147.195 1432.42 Q150.274 1437 150.274 1445.75 Q150.274 1454.48 147.195 1459.08 Q144.14 1463.67 138.33 1463.67 Q132.519 1463.67 129.441 1459.08 Q126.385 1454.48 126.385 1445.75 Q126.385 1437 129.441 1432.42 Q132.519 1427.81 138.33 1427.81 Z" fill="#000000" fill-rule="evenodd" fill-opacity="1" /><path clip-path="url(#clip780)" d="M63.9319 1092.08 Q60.3208 1092.08 58.4921 1095.64 Q56.6865 1099.19 56.6865 1106.32 Q56.6865 1113.42 58.4921 1116.99 Q60.3208 1120.53 63.9319 1120.53 Q67.5661 1120.53 69.3717 1116.99 Q71.2004 1113.42 71.2004 1106.32 Q71.2004 1099.19 69.3717 1095.64 Q67.5661 1092.08 63.9319 1092.08 M63.9319 1088.38 Q69.742 1088.38 72.7976 1092.98 Q75.8763 1097.57 75.8763 1106.32 Q75.8763 1115.04 72.7976 1119.65 Q69.742 1124.23 63.9319 1124.23 Q58.1217 1124.23 55.043 1119.65 Q51.9875 1115.04 51.9875 1106.32 Q51.9875 1097.57 55.043 1092.98 Q58.1217 1088.38 63.9319 1088.38 Z" fill="#000000" fill-rule="evenodd" fill-opacity="1" /><path clip-path="url(#clip780)" d="M84.0938 1117.68 L88.978 1117.68 L88.978 1123.56 L84.0938 1123.56 L84.0938 1117.68 Z" fill="#000000" fill-rule="evenodd" fill-opacity="1" /><path clip-path="url(#clip780)" d="M103.191 1119.63 L119.51 1119.63 L119.51 1123.56 L97.566 1123.56 L97.566 1119.63 Q100.228 1116.87 104.811 1112.24 Q109.418 1107.59 110.598 1106.25 Q112.844 1103.72 113.723 1101.99 Q114.626 1100.23 114.626 1098.54 Q114.626 1095.78 112.682 1094.05 Q110.76 1092.31 107.658 1092.31 Q105.459 1092.31 103.006 1093.07 Q100.575 1093.84 97.7974 1095.39 L97.7974 1090.67 Q100.621 1089.53 103.075 1088.95 Q105.529 1088.38 107.566 1088.38 Q112.936 1088.38 116.131 1091.06 Q119.325 1093.75 119.325 1098.24 Q119.325 1100.37 118.515 1102.29 Q117.728 1104.19 115.621 1106.78 Q115.043 1107.45 111.941 1110.67 Q108.839 1113.86 103.191 1119.63 Z" fill="#000000" fill-rule="evenodd" fill-opacity="1" /><path clip-path="url(#clip780)" d="M129.371 1089 L147.728 1089 L147.728 1092.94 L133.654 1092.94 L133.654 1101.41 Q134.672 1101.06 135.691 1100.9 Q136.709 1100.71 137.728 1100.71 Q143.515 1100.71 146.894 1103.89 Q150.274 1107.06 150.274 1112.47 Q150.274 1118.05 146.802 1121.15 Q143.33 1124.23 137.01 1124.23 Q134.834 1124.23 132.566 1123.86 Q130.32 1123.49 127.913 1122.75 L127.913 1118.05 Q129.996 1119.19 132.219 1119.74 Q134.441 1120.3 136.918 1120.3 Q140.922 1120.3 143.26 1118.19 Q145.598 1116.08 145.598 1112.47 Q145.598 1108.86 143.26 1106.76 Q140.922 1104.65 136.918 1104.65 Q135.043 1104.65 133.168 1105.07 Q131.316 1105.48 129.371 1106.36 L129.371 1089 Z" fill="#000000" fill-rule="evenodd" fill-opacity="1" /><path clip-path="url(#clip780)" d="M62.9365 752.645 Q59.3254 752.645 57.4967 756.209 Q55.6912 759.751 55.6912 766.881 Q55.6912 773.987 57.4967 777.552 Q59.3254 781.094 62.9365 781.094 Q66.5707 781.094 68.3763 777.552 Q70.205 773.987 70.205 766.881 Q70.205 759.751 68.3763 756.209 Q66.5707 752.645 62.9365 752.645 M62.9365 748.941 Q68.7467 748.941 71.8022 753.547 Q74.8809 758.131 74.8809 766.881 Q74.8809 775.608 71.8022 780.214 Q68.7467 784.797 62.9365 784.797 Q57.1264 784.797 54.0477 780.214 Q50.9921 775.608 50.9921 766.881 Q50.9921 758.131 54.0477 753.547 Q57.1264 748.941 62.9365 748.941 Z" fill="#000000" fill-rule="evenodd" fill-opacity="1" /><path clip-path="url(#clip780)" d="M83.0984 778.246 L87.9827 778.246 L87.9827 784.126 L83.0984 784.126 L83.0984 778.246 Z" fill="#000000" fill-rule="evenodd" fill-opacity="1" /><path clip-path="url(#clip780)" d="M98.2141 749.566 L116.57 749.566 L116.57 753.501 L102.496 753.501 L102.496 761.973 Q103.515 761.626 104.534 761.464 Q105.552 761.279 106.571 761.279 Q112.358 761.279 115.737 764.45 Q119.117 767.621 119.117 773.038 Q119.117 778.617 115.645 781.719 Q112.172 784.797 105.853 784.797 Q103.677 784.797 101.409 784.427 Q99.1632 784.057 96.7558 783.316 L96.7558 778.617 Q98.8391 779.751 101.061 780.307 Q103.284 780.862 105.76 780.862 Q109.765 780.862 112.103 778.756 Q114.441 776.649 114.441 773.038 Q114.441 769.427 112.103 767.321 Q109.765 765.214 105.76 765.214 Q103.885 765.214 102.01 765.631 Q100.159 766.047 98.2141 766.927 L98.2141 749.566 Z" fill="#000000" fill-rule="evenodd" fill-opacity="1" /><path clip-path="url(#clip780)" d="M138.33 752.645 Q134.719 752.645 132.89 756.209 Q131.084 759.751 131.084 766.881 Q131.084 773.987 132.89 777.552 Q134.719 781.094 138.33 781.094 Q141.964 781.094 143.769 777.552 Q145.598 773.987 145.598 766.881 Q145.598 759.751 143.769 756.209 Q141.964 752.645 138.33 752.645 M138.33 748.941 Q144.14 748.941 147.195 753.547 Q150.274 758.131 150.274 766.881 Q150.274 775.608 147.195 780.214 Q144.14 784.797 138.33 784.797 Q132.519 784.797 129.441 780.214 Q126.385 775.608 126.385 766.881 Q126.385 758.131 129.441 753.547 Q132.519 748.941 138.33 748.941 Z" fill="#000000" fill-rule="evenodd" fill-opacity="1" /><path clip-path="url(#clip780)" d="M63.9319 413.21 Q60.3208 413.21 58.4921 416.775 Q56.6865 420.316 56.6865 427.446 Q56.6865 434.552 58.4921 438.117 Q60.3208 441.659 63.9319 441.659 Q67.5661 441.659 69.3717 438.117 Q71.2004 434.552 71.2004 427.446 Q71.2004 420.316 69.3717 416.775 Q67.5661 413.21 63.9319 413.21 M63.9319 409.506 Q69.742 409.506 72.7976 414.113 Q75.8763 418.696 75.8763 427.446 Q75.8763 436.173 72.7976 440.779 Q69.742 445.362 63.9319 445.362 Q58.1217 445.362 55.043 440.779 Q51.9875 436.173 51.9875 427.446 Q51.9875 418.696 55.043 414.113 Q58.1217 409.506 63.9319 409.506 Z" fill="#000000" fill-rule="evenodd" fill-opacity="1" /><path clip-path="url(#clip780)" d="M84.0938 438.812 L88.978 438.812 L88.978 444.691 L84.0938 444.691 L84.0938 438.812 Z" fill="#000000" fill-rule="evenodd" fill-opacity="1" /><path clip-path="url(#clip780)" d="M97.9826 410.131 L120.205 410.131 L120.205 412.122 L107.658 444.691 L102.774 444.691 L114.58 414.066 L97.9826 414.066 L97.9826 410.131 Z" fill="#000000" fill-rule="evenodd" fill-opacity="1" /><path clip-path="url(#clip780)" d="M129.371 410.131 L147.728 410.131 L147.728 414.066 L133.654 414.066 L133.654 422.538 Q134.672 422.191 135.691 422.029 Q136.709 421.844 137.728 421.844 Q143.515 421.844 146.894 425.015 Q150.274 428.187 150.274 433.603 Q150.274 439.182 146.802 442.284 Q143.33 445.362 137.01 445.362 Q134.834 445.362 132.566 444.992 Q130.32 444.622 127.913 443.881 L127.913 439.182 Q129.996 440.316 132.219 440.872 Q134.441 441.427 136.918 441.427 Q140.922 441.427 143.26 439.321 Q145.598 437.214 145.598 433.603 Q145.598 429.992 143.26 427.886 Q140.922 425.779 136.918 425.779 Q135.043 425.779 133.168 426.196 Q131.316 426.613 129.371 427.492 L129.371 410.131 Z" fill="#000000" fill-rule="evenodd" fill-opacity="1" /><path clip-path="url(#clip780)" d="M53.7467 101.321 L61.3856 101.321 L61.3856 74.9555 L53.0754 76.6222 L53.0754 72.3629 L61.3393 70.6963 L66.0152 70.6963 L66.0152 101.321 L73.654 101.321 L73.654 105.256 L53.7467 105.256 L53.7467 101.321 Z" fill="#000000" fill-rule="evenodd" fill-opacity="1" /><path clip-path="url(#clip780)" d="M83.0984 99.3767 L87.9827 99.3767 L87.9827 105.256 L83.0984 105.256 L83.0984 99.3767 Z" fill="#000000" fill-rule="evenodd" fill-opacity="1" /><path clip-path="url(#clip780)" d="M108.168 73.775 Q104.557 73.775 102.728 77.3398 Q100.922 80.8814 100.922 88.011 Q100.922 95.1174 102.728 98.6822 Q104.557 102.224 108.168 102.224 Q111.802 102.224 113.608 98.6822 Q115.436 95.1174 115.436 88.011 Q115.436 80.8814 113.608 77.3398 Q111.802 73.775 108.168 73.775 M108.168 70.0713 Q113.978 70.0713 117.033 74.6777 Q120.112 79.261 120.112 88.011 Q120.112 96.7378 117.033 101.344 Q113.978 105.928 108.168 105.928 Q102.358 105.928 99.2789 101.344 Q96.2234 96.7378 96.2234 88.011 Q96.2234 79.261 99.2789 74.6777 Q102.358 70.0713 108.168 70.0713 Z" fill="#000000" fill-rule="evenodd" fill-opacity="1" /><path clip-path="url(#clip780)" d="M138.33 73.775 Q134.719 73.775 132.89 77.3398 Q131.084 80.8814 131.084 88.011 Q131.084 95.1174 132.89 98.6822 Q134.719 102.224 138.33 102.224 Q141.964 102.224 143.769 98.6822 Q145.598 95.1174 145.598 88.011 Q145.598 80.8814 143.769 77.3398 Q141.964 73.775 138.33 73.775 M138.33 70.0713 Q144.14 70.0713 147.195 74.6777 Q150.274 79.261 150.274 88.011 Q150.274 96.7378 147.195 101.344 Q144.14 105.928 138.33 105.928 Q132.519 105.928 129.441 101.344 Q126.385 96.7378 126.385 88.011 Q126.385 79.261 129.441 74.6777 Q132.519 70.0713 138.33 70.0713 Z" fill="#000000" fill-rule="evenodd" fill-opacity="1" /><polyline clip-path="url(#clip782)" style="stroke:#009af9; stroke-linecap:round; stroke-linejoin:round; stroke-width:4; stroke-opacity:1; fill:none" points="186.274,87.9763 197.216,128.706 208.158,168.612 219.099,207.705 230.041,245.991 240.983,283.479 251.925,320.179 262.867,356.098 273.809,391.244 284.75,425.626 295.692,459.253 306.634,492.132 317.576,524.272 328.518,555.683 339.46,586.371 350.401,616.345 361.343,645.614 372.285,674.186 383.227,702.07 394.169,729.274 405.111,755.806 416.052,781.675 426.994,806.889 437.936,831.457 448.878,855.386 459.82,878.686 470.762,901.364 481.703,923.43 492.645,944.891 503.587,965.756 514.529,986.033 525.471,1005.73 536.412,1024.86 547.354,1043.42 558.296,1061.43 569.238,1078.9 580.18,1095.82 591.122,1112.22 602.063,1128.1 613.005,1143.47 623.947,1158.33 634.889,1172.7 645.831,1186.58 656.773,1199.98 667.714,1212.91 678.656,1225.38 689.598,1237.39 700.54,1248.96 711.482,1260.1 722.424,1270.8 733.365,1281.09 744.307,1290.96 755.249,1300.44 766.191,1309.51 777.133,1318.2 788.075,1326.52 799.016,1334.46 809.958,1342.04 820.9,1349.27 831.842,1356.16 842.784,1362.71 853.725,1368.93 864.667,1374.84 875.609,1380.43 886.551,1385.72 897.493,1390.72 908.435,1395.43 919.376,1399.86 930.318,1404.03 941.26,1407.93 952.202,1411.59 963.144,1415 974.086,1418.17 985.027,1421.12 995.969,1423.85 1006.91,1426.37 1017.85,1428.69 1028.79,1430.82 1039.74,1432.76 1050.68,1434.52 1061.62,1436.12 1072.56,1437.55 1083.5,1438.84 1094.45,1439.98 1105.39,1440.99 1116.33,1441.88 1127.27,1442.64 1138.21,1443.3 1149.15,1443.85 1160.1,1444.32 1171.04,1444.7 1181.98,1445 1192.92,1445.24 1203.86,1445.41 1214.81,1445.54 1225.75,1445.63 1236.69,1445.68 1247.63,1445.7 1258.57,1445.71 1269.51,1445.72 1280.46,1445.72 1291.4,1445.72 1302.34,1445.72 1313.28,1445.72 1324.22,1445.72 1335.17,1445.72 1346.11,1445.72 1357.05,1445.72 1367.99,1445.72 1378.93,1445.72 1389.88,1445.72 1400.82,1445.72 1411.76,1445.72 1422.7,1445.72 1433.64,1445.72 1444.58,1445.72 1455.53,1445.72 1466.47,1445.72 1477.41,1445.72 1488.35,1445.72 1499.29,1445.72 1510.24,1445.72 1521.18,1445.72 1532.12,1445.72 1543.06,1445.72 1554,1445.72 1564.94,1445.72 1575.89,1445.72 1586.83,1445.72 1597.77,1445.72 1608.71,1445.72 1619.65,1445.72 1630.6,1445.72 1641.54,1445.72 1652.48,1445.72 1663.42,1445.72 1674.36,1445.72 1685.3,1445.72 1696.25,1445.72 1707.19,1445.72 1718.13,1445.72 1729.07,1445.72 1740.01,1445.72 1750.96,1445.72 1761.9,1445.72 1772.84,1445.72 1783.78,1445.72 1794.72,1445.72 1805.66,1445.72 1816.61,1445.72 1827.55,1445.72 1838.49,1445.72 1849.43,1445.72 1860.37,1445.72 1871.32,1445.72 1882.26,1445.72 1893.2,1445.72 1904.14,1445.72 1915.08,1445.72 1926.02,1445.72 1936.97,1445.72 1947.91,1445.72 1958.85,1445.72 1969.79,1445.72 1980.73,1445.72 1991.68,1445.72 2002.62,1445.72 2013.56,1445.72 2024.5,1445.72 2035.44,1445.72 2046.38,1445.72 2057.33,1445.72 2068.27,1445.72 2079.21,1445.72 2090.15,1445.72 2101.09,1445.72 2112.04,1445.72 2122.98,1445.72 2133.92,1445.72 2144.86,1445.72 2155.8,1445.72 2166.74,1445.72 2177.69,1445.72 2188.63,1445.72 2199.57,1445.72 2210.51,1445.72 2221.45,1445.72 2232.4,1445.72 2243.34,1445.72 2254.28,1445.72 2265.22,1445.72 2276.16,1445.72 2287.1,1445.72 2298.05,1445.72 2308.99,1445.72 2319.93,1445.72 2330.87,1445.72 2341.81,1445.72 2352.76,1445.72 "/>
<polyline clip-path="url(#clip782)" style="stroke:#009af9; stroke-linecap:round; stroke-linejoin:round; stroke-width:4; stroke-opacity:1; fill:none" points="186.274,1445.72 197.216,1405.19 208.158,1365.9 219.099,1327.83 230.041,1290.96 240.983,1255.28 251.925,1220.77 262.867,1187.42 273.809,1155.21 284.75,1124.13 295.692,1094.17 306.634,1065.31 317.576,1037.53 328.518,1010.82 339.46,985.17 350.401,960.559 361.343,936.975 372.285,914.403 383.227,892.827 394.169,872.234 405.111,852.608 416.052,833.936 426.994,816.201 437.936,799.391 448.878,783.489 459.82,768.481 470.762,754.352 481.703,741.089 492.645,728.675 503.587,717.097 514.529,706.34 525.471,696.388 536.412,687.228 547.354,678.844 558.296,671.223 569.238,664.348 580.18,658.206 591.122,652.782 602.063,648.062 613.005,644.029 623.947,640.67 634.889,637.971 645.831,635.916 656.773,634.49 667.714,633.679 678.656,633.469 689.598,633.845 700.54,634.791 711.482,636.293 722.424,638.337 733.365,640.908 744.307,643.991 755.249,647.572 766.191,651.635 777.133,656.166 788.075,661.151 799.016,666.574 809.958,672.422 820.9,678.678 831.842,685.329 842.784,692.361 853.725,699.757 864.667,707.504 875.609,715.586 886.551,723.99 897.493,732.701 908.435,741.703 919.376,750.982 930.318,760.523 941.26,770.312 952.202,780.335 963.144,790.575 974.086,801.019 985.027,811.652 995.969,822.459 1006.91,833.426 1017.85,844.537 1028.79,855.779 1039.74,867.136 1050.68,878.594 1061.62,890.138 1072.56,901.753 1083.5,913.425 1094.45,925.139 1105.39,936.88 1116.33,948.634 1127.27,960.385 1138.21,972.12 1149.15,983.824 1160.1,995.481 1171.04,1007.08 1181.98,1018.6 1192.92,1030.03 1203.86,1041.35 1214.81,1052.56 1225.75,1063.63 1236.69,1074.55 1247.63,1085.31 1258.57,1095.89 1269.51,1106.28 1280.46,1116.46 1291.4,1126.44 1302.34,1136.21 1313.28,1145.78 1324.22,1155.16 1335.17,1164.33 1346.11,1173.31 1357.05,1182.1 1367.99,1190.69 1378.93,1199.1 1389.88,1207.32 1400.82,1215.35 1411.76,1223.21 1422.7,1230.88 1433.64,1238.37 1444.58,1245.69 1455.53,1252.83 1466.47,1259.8 1477.41,1266.61 1488.35,1273.24 1499.29,1279.71 1510.24,1286.01 1521.18,1292.15 1532.12,1298.13 1543.06,1303.96 1554,1309.63 1564.94,1315.14 1575.89,1320.51 1586.83,1325.73 1597.77,1330.8 1608.71,1335.72 1619.65,1340.5 1630.6,1345.14 1641.54,1349.64 1652.48,1354.01 1663.42,1358.24 1674.36,1362.34 1685.3,1366.31 1696.25,1370.15 1707.19,1373.87 1718.13,1377.46 1729.07,1380.93 1740.01,1384.28 1750.96,1387.51 1761.9,1390.63 1772.84,1393.63 1783.78,1396.53 1794.72,1399.31 1805.66,1401.99 1816.61,1404.56 1827.55,1407.03 1838.49,1409.4 1849.43,1411.67 1860.37,1413.84 1871.32,1415.92 1882.26,1417.9 1893.2,1419.8 1904.14,1421.61 1915.08,1423.33 1926.02,1424.96 1936.97,1426.52 1947.91,1428 1958.85,1429.39 1969.79,1430.72 1980.73,1431.97 1991.68,1433.14 2002.62,1434.25 2013.56,1435.29 2024.5,1436.27 2035.44,1437.18 2046.38,1438.04 2057.33,1438.83 2068.27,1439.57 2079.21,1440.25 2090.15,1440.88 2101.09,1441.46 2112.04,1441.99 2122.98,1442.48 2133.92,1442.92 2144.86,1443.32 2155.8,1443.68 2166.74,1444 2177.69,1444.28 2188.63,1444.54 2199.57,1444.76 2210.51,1444.95 2221.45,1445.11 2232.4,1445.25 2243.34,1445.37 2254.28,1445.46 2265.22,1445.54 2276.16,1445.6 2287.1,1445.64 2298.05,1445.67 2308.99,1445.69 2319.93,1445.71 2330.87,1445.71 2341.81,1445.72 2352.76,1445.72 "/>
<polyline clip-path="url(#clip782)" style="stroke:#009af9; stroke-linecap:round; stroke-linejoin:round; stroke-width:4; stroke-opacity:1; fill:none" points="186.274,1445.72 197.216,1445.51 208.158,1444.9 219.099,1443.88 230.041,1442.48 240.983,1440.7 251.925,1438.54 262.867,1436.01 273.809,1433.13 284.75,1429.9 295.692,1426.34 306.634,1422.43 317.576,1418.21 328.518,1413.67 339.46,1408.83 350.401,1403.68 361.343,1398.25 372.285,1392.54 383.227,1386.55 394.169,1380.3 405.111,1373.79 416.052,1367.04 426.994,1360.04 437.936,1352.82 448.878,1345.37 459.82,1337.71 470.762,1329.84 481.703,1321.77 492.645,1313.52 503.587,1305.09 514.529,1296.48 525.471,1287.71 536.412,1278.78 547.354,1269.71 558.296,1260.5 569.238,1251.16 580.18,1241.7 591.122,1232.12 602.063,1222.44 613.005,1212.66 623.947,1202.8 634.889,1192.85 645.831,1182.83 656.773,1172.75 667.714,1162.62 678.656,1152.44 689.598,1142.22 700.54,1131.97 711.482,1121.7 722.424,1111.42 733.365,1101.14 744.307,1090.86 755.249,1080.59 766.191,1070.34 777.133,1060.12 788.075,1049.94 799.016,1039.81 809.958,1029.73 820.9,1019.71 831.842,1009.76 842.784,999.899 853.725,990.121 864.667,980.44 875.609,970.864 886.551,961.401 897.493,952.06 908.435,942.849 919.376,933.777 930.318,924.851 941.26,916.081 952.202,907.475 963.144,899.041 974.086,890.787 985.027,882.722 995.969,874.854 1006.91,867.193 1017.85,859.745 1028.79,852.52 1039.74,845.525 1050.68,838.77 1061.62,832.263 1072.56,826.011 1083.5,820.024 1094.45,814.31 1105.39,808.877 1116.33,803.734 1127.27,798.889 1138.21,794.351 1149.15,790.127 1160.1,786.226 1171.04,782.657 1181.98,779.428 1192.92,776.548 1203.86,774.024 1214.81,771.866 1225.75,770.081 1236.69,768.678 1247.63,767.666 1258.57,767.052 1269.51,766.846 1280.46,767.052 1291.4,767.666 1302.34,768.678 1313.28,770.081 1324.22,771.866 1335.17,774.024 1346.11,776.548 1357.05,779.428 1367.99,782.657 1378.93,786.226 1389.88,790.127 1400.82,794.351 1411.76,798.889 1422.7,803.734 1433.64,808.877 1444.58,814.31 1455.53,820.024 1466.47,826.011 1477.41,832.263 1488.35,838.77 1499.29,845.525 1510.24,852.52 1521.18,859.745 1532.12,867.193 1543.06,874.854 1554,882.722 1564.94,890.787 1575.89,899.041 1586.83,907.475 1597.77,916.081 1608.71,924.851 1619.65,933.777 1630.6,942.849 1641.54,952.06 1652.48,961.401 1663.42,970.864 1674.36,980.44 1685.3,990.121 1696.25,999.899 1707.19,1009.76 1718.13,1019.71 1729.07,1029.73 1740.01,1039.81 1750.96,1049.94 1761.9,1060.12 1772.84,1070.34 1783.78,1080.59 1794.72,1090.86 1805.66,1101.14 1816.61,1111.42 1827.55,1121.7 1838.49,1131.97 1849.43,1142.22 1860.37,1152.44 1871.32,1162.62 1882.26,1172.75 1893.2,1182.83 1904.14,1192.85 1915.08,1202.8 1926.02,1212.66 1936.97,1222.44 1947.91,1232.12 1958.85,1241.7 1969.79,1251.16 1980.73,1260.5 1991.68,1269.71 2002.62,1278.78 2013.56,1287.71 2024.5,1296.48 2035.44,1305.09 2046.38,1313.52 2057.33,1321.77 2068.27,1329.84 2079.21,1337.71 2090.15,1345.37 2101.09,1352.82 2112.04,1360.04 2122.98,1367.04 2133.92,1373.79 2144.86,1380.3 2155.8,1386.55 2166.74,1392.54 2177.69,1398.25 2188.63,1403.68 2199.57,1408.83 2210.51,1413.67 2221.45,1418.21 2232.4,1422.43 2243.34,1426.34 2254.28,1429.9 2265.22,1433.13 2276.16,1436.01 2287.1,1438.54 2298.05,1440.7 2308.99,1442.48 2319.93,1443.88 2330.87,1444.9 2341.81,1445.51 2352.76,1445.72 "/>
<polyline clip-path="url(#clip782)" style="stroke:#009af9; stroke-linecap:round; stroke-linejoin:round; stroke-width:4; stroke-opacity:1; fill:none" points="186.274,1445.72 197.216,1445.72 208.158,1445.71 219.099,1445.71 230.041,1445.69 240.983,1445.67 251.925,1445.64 262.867,1445.6 273.809,1445.54 284.75,1445.46 295.692,1445.37 306.634,1445.25 317.576,1445.11 328.518,1444.95 339.46,1444.76 350.401,1444.54 361.343,1444.28 372.285,1444 383.227,1443.68 394.169,1443.32 405.111,1442.92 416.052,1442.48 426.994,1441.99 437.936,1441.46 448.878,1440.88 459.82,1440.25 470.762,1439.57 481.703,1438.83 492.645,1438.04 503.587,1437.18 514.529,1436.27 525.471,1435.29 536.412,1434.25 547.354,1433.14 558.296,1431.97 569.238,1430.72 580.18,1429.39 591.122,1428 602.063,1426.52 613.005,1424.96 623.947,1423.33 634.889,1421.61 645.831,1419.8 656.773,1417.9 667.714,1415.92 678.656,1413.84 689.598,1411.67 700.54,1409.4 711.482,1407.03 722.424,1404.56 733.365,1401.99 744.307,1399.31 755.249,1396.53 766.191,1393.63 777.133,1390.63 788.075,1387.51 799.016,1384.28 809.958,1380.93 820.9,1377.46 831.842,1373.87 842.784,1370.15 853.725,1366.31 864.667,1362.34 875.609,1358.24 886.551,1354.01 897.493,1349.64 908.435,1345.14 919.376,1340.5 930.318,1335.72 941.26,1330.8 952.202,1325.73 963.144,1320.51 974.086,1315.14 985.027,1309.63 995.969,1303.96 1006.91,1298.13 1017.85,1292.15 1028.79,1286.01 1039.74,1279.71 1050.68,1273.24 1061.62,1266.61 1072.56,1259.8 1083.5,1252.83 1094.45,1245.69 1105.39,1238.37 1116.33,1230.88 1127.27,1223.21 1138.21,1215.35 1149.15,1207.32 1160.1,1199.1 1171.04,1190.69 1181.98,1182.1 1192.92,1173.31 1203.86,1164.33 1214.81,1155.16 1225.75,1145.78 1236.69,1136.21 1247.63,1126.44 1258.57,1116.46 1269.51,1106.28 1280.46,1095.89 1291.4,1085.31 1302.34,1074.55 1313.28,1063.63 1324.22,1052.56 1335.17,1041.35 1346.11,1030.03 1357.05,1018.6 1367.99,1007.08 1378.93,995.481 1389.88,983.824 1400.82,972.12 1411.76,960.385 1422.7,948.634 1433.64,936.88 1444.58,925.139 1455.53,913.425 1466.47,901.753 1477.41,890.138 1488.35,878.594 1499.29,867.136 1510.24,855.779 1521.18,844.537 1532.12,833.426 1543.06,822.459 1554,811.652 1564.94,801.019 1575.89,790.575 1586.83,780.335 1597.77,770.312 1608.71,760.523 1619.65,750.982 1630.6,741.703 1641.54,732.701 1652.48,723.99 1663.42,715.586 1674.36,707.504 1685.3,699.757 1696.25,692.361 1707.19,685.329 1718.13,678.678 1729.07,672.422 1740.01,666.574 1750.96,661.151 1761.9,656.166 1772.84,651.635 1783.78,647.572 1794.72,643.991 1805.66,640.908 1816.61,638.337 1827.55,636.293 1838.49,634.791 1849.43,633.845 1860.37,633.469 1871.32,633.679 1882.26,634.49 1893.2,635.916 1904.14,637.971 1915.08,640.67 1926.02,644.029 1936.97,648.062 1947.91,652.782 1958.85,658.206 1969.79,664.348 1980.73,671.223 1991.68,678.844 2002.62,687.228 2013.56,696.388 2024.5,706.34 2035.44,717.097 2046.38,728.675 2057.33,741.089 2068.27,754.352 2079.21,768.481 2090.15,783.489 2101.09,799.391 2112.04,816.201 2122.98,833.936 2133.92,852.608 2144.86,872.234 2155.8,892.827 2166.74,914.403 2177.69,936.975 2188.63,960.559 2199.57,985.17 2210.51,1010.82 2221.45,1037.53 2232.4,1065.31 2243.34,1094.17 2254.28,1124.13 2265.22,1155.21 2276.16,1187.42 2287.1,1220.77 2298.05,1255.28 2308.99,1290.96 2319.93,1327.83 2330.87,1365.9 2341.81,1405.19 2352.76,1445.72 "/>
<polyline clip-path="url(#clip782)" style="stroke:#009af9; stroke-linecap:round; stroke-linejoin:round; stroke-width:4; stroke-opacity:1; fill:none" points="186.274,1445.72 197.216,1445.72 208.158,1445.72 219.099,1445.72 230.041,1445.72 240.983,1445.72 251.925,1445.72 262.867,1445.72 273.809,1445.72 284.75,1445.72 295.692,1445.72 306.634,1445.72 317.576,1445.72 328.518,1445.72 339.46,1445.72 350.401,1445.72 361.343,1445.72 372.285,1445.72 383.227,1445.72 394.169,1445.72 405.111,1445.72 416.052,1445.72 426.994,1445.72 437.936,1445.72 448.878,1445.72 459.82,1445.72 470.762,1445.72 481.703,1445.72 492.645,1445.72 503.587,1445.72 514.529,1445.72 525.471,1445.72 536.412,1445.72 547.354,1445.72 558.296,1445.72 569.238,1445.72 580.18,1445.72 591.122,1445.72 602.063,1445.72 613.005,1445.72 623.947,1445.72 634.889,1445.72 645.831,1445.72 656.773,1445.72 667.714,1445.72 678.656,1445.72 689.598,1445.72 700.54,1445.72 711.482,1445.72 722.424,1445.72 733.365,1445.72 744.307,1445.72 755.249,1445.72 766.191,1445.72 777.133,1445.72 788.075,1445.72 799.016,1445.72 809.958,1445.72 820.9,1445.72 831.842,1445.72 842.784,1445.72 853.725,1445.72 864.667,1445.72 875.609,1445.72 886.551,1445.72 897.493,1445.72 908.435,1445.72 919.376,1445.72 930.318,1445.72 941.26,1445.72 952.202,1445.72 963.144,1445.72 974.086,1445.72 985.027,1445.72 995.969,1445.72 1006.91,1445.72 1017.85,1445.72 1028.79,1445.72 1039.74,1445.72 1050.68,1445.72 1061.62,1445.72 1072.56,1445.72 1083.5,1445.72 1094.45,1445.72 1105.39,1445.72 1116.33,1445.72 1127.27,1445.72 1138.21,1445.72 1149.15,1445.72 1160.1,1445.72 1171.04,1445.72 1181.98,1445.72 1192.92,1445.72 1203.86,1445.72 1214.81,1445.72 1225.75,1445.72 1236.69,1445.72 1247.63,1445.72 1258.57,1445.72 1269.51,1445.72 1280.46,1445.71 1291.4,1445.7 1302.34,1445.68 1313.28,1445.63 1324.22,1445.54 1335.17,1445.41 1346.11,1445.24 1357.05,1445 1367.99,1444.7 1378.93,1444.32 1389.88,1443.85 1400.82,1443.3 1411.76,1442.64 1422.7,1441.88 1433.64,1440.99 1444.58,1439.98 1455.53,1438.84 1466.47,1437.55 1477.41,1436.12 1488.35,1434.52 1499.29,1432.76 1510.24,1430.82 1521.18,1428.69 1532.12,1426.37 1543.06,1423.85 1554,1421.12 1564.94,1418.17 1575.89,1415 1586.83,1411.59 1597.77,1407.93 1608.71,1404.03 1619.65,1399.86 1630.6,1395.43 1641.54,1390.72 1652.48,1385.72 1663.42,1380.43 1674.36,1374.84 1685.3,1368.93 1696.25,1362.71 1707.19,1356.16 1718.13,1349.27 1729.07,1342.04 1740.01,1334.46 1750.96,1326.52 1761.9,1318.2 1772.84,1309.51 1783.78,1300.44 1794.72,1290.96 1805.66,1281.09 1816.61,1270.8 1827.55,1260.1 1838.49,1248.96 1849.43,1237.39 1860.37,1225.38 1871.32,1212.91 1882.26,1199.98 1893.2,1186.58 1904.14,1172.7 1915.08,1158.33 1926.02,1143.47 1936.97,1128.1 1947.91,1112.22 1958.85,1095.82 1969.79,1078.9 1980.73,1061.43 1991.68,1043.42 2002.62,1024.86 2013.56,1005.73 2024.5,986.033 2035.44,965.756 2046.38,944.891 2057.33,923.43 2068.27,901.364 2079.21,878.686 2090.15,855.386 2101.09,831.457 2112.04,806.889 2122.98,781.675 2133.92,755.806 2144.86,729.274 2155.8,702.07 2166.74,674.186 2177.69,645.614 2188.63,616.345 2199.57,586.371 2210.51,555.683 2221.45,524.272 2232.4,492.132 2243.34,459.253 2254.28,425.626 2265.22,391.244 2276.16,356.098 2287.1,320.179 2298.05,283.479 2308.99,245.991 2319.93,207.705 2330.87,168.612 2341.81,128.706 2352.76,87.9763 "/>
<path clip-path="url(#clip780)" d="M2011.46 198.898 L2280.54 198.898 L2280.54 95.2176 L2011.46 95.2176  Z" fill="#ffffff" fill-rule="evenodd" fill-opacity="1"/>
<polyline clip-path="url(#clip780)" style="stroke:#000000; stroke-linecap:round; stroke-linejoin:round; stroke-width:4; stroke-opacity:1; fill:none" points="2011.46,198.898 2280.54,198.898 2280.54,95.2176 2011.46,95.2176 2011.46,198.898 "/>
<polyline clip-path="url(#clip780)" style="stroke:#009af9; stroke-linecap:round; stroke-linejoin:round; stroke-width:4; stroke-opacity:1; fill:none" points="2035.53,147.058 2179.97,147.058 "/>
<path clip-path="url(#clip780)" d="M2217.88 166.745 Q2216.07 171.375 2214.36 172.787 Q2212.65 174.199 2209.78 174.199 L2206.38 174.199 L2206.38 170.634 L2208.88 170.634 Q2210.63 170.634 2211.61 169.8 Q2212.58 168.967 2213.76 165.865 L2214.52 163.921 L2204.04 138.412 L2208.55 138.412 L2216.65 158.689 L2224.76 138.412 L2229.27 138.412 L2217.88 166.745 Z" fill="#000000" fill-rule="evenodd" fill-opacity="1" /><path clip-path="url(#clip780)" d="M2236.56 160.402 L2244.2 160.402 L2244.2 134.037 L2235.89 135.703 L2235.89 131.444 L2244.15 129.778 L2248.83 129.778 L2248.83 160.402 L2256.47 160.402 L2256.47 164.338 L2236.56 164.338 L2236.56 160.402 Z" fill="#000000" fill-rule="evenodd" fill-opacity="1" /></svg>
